<?xml version="1.0" encoding="utf-8"?>
<!-- Generator: Adobe Illustrator 26.0.0, SVG Export Plug-In . SVG Version: 6.00 Build 0)  -->
<svg version="1.1" id="Layer_1" xmlns="http://www.w3.org/2000/svg" xmlns:xlink="http://www.w3.org/1999/xlink" x="0px" y="0px"
	 viewBox="0 0 250 250" style="enable-background:new 0 0 250 250;" xml:space="preserve">
<style type="text/css">
	.st0{fill:#FFFFFF;}
</style>
<path class="st0" d="M191.2,167.9c0,0.9-0.6,1.4-1.1,2c-13.4,18.2-31.1,29-53.6,31.8c-17.2,2.1-33.3-1.4-48.2-10.2
	c-1.5-0.9-2.2-1-3.1,0.7c-1.7,3.3-3.7,6.4-5.7,9.9c-0.4-0.6-0.6-1-0.8-1.3c-6-10.3-11.9-20.7-17.9-31c-0.2-0.3-0.3-0.7-0.4-1
	c0.3-0.2,0.4-0.5,0.4-0.8h19.3c0.4,0,0.9,0,1.3,0c5.7,0,11.4,0,17.1,0l0.4,0.4c-1.9,3.4-3.8,6.9-5.8,10.2c-0.6,1-0.5,1.4,0.5,2
	c12,7.2,25,10.5,39,9.3c17-1.4,31.2-8.6,42.8-21.2c0.6-0.6,1.2-1,2.1-0.9C182.1,167.9,186.6,167.9,191.2,167.9z"/>
<path class="st0" d="M194.4,87.9c-0.1,0.1-0.3,0.3-0.4,0.4c-4.4,0.2-8.8,0.2-13.1,0c-0.2-0.1-0.4-0.3-0.5-0.4
	c-5.2-6.7-11.1-12.6-18.2-17.1c-28.4-17.9-65.5-11.2-86,15.5c-0.5,0.7-0.9,1.5-1.7,1.9c-0.2-0.2-0.3-0.2-0.4,0.1
	c-4.2,0.2-8.5,0.2-12.7,0c0-0.4-0.1-0.8-0.1-1.2c2-4,4.5-7.5,7.5-10.7c0.4-0.9,1-1.5,1.8-2.1c0.1-0.1,0.3-0.3,0.4-0.4
	c2.3-2.8,4.9-5.4,7.9-7.5c8-6.9,17.2-11.7,27.3-14.6c17.3-4.9,34.3-4,50.9,2.8c8.4,3.5,16,8.1,22.5,14.5c0.6,0.6,1.2,1.1,1.8,1.7
	C186.6,75.8,190.9,81.5,194.4,87.9z"/>
<path class="st0" d="M82.1,156.1c-11.2-0.1-22.3-0.1-33.5,0c-1.6,0-1.7-0.6-1.9-2c-0.8-5.4,1.1-9.4,5.2-13.1
	c6-5.3,11.5-11.2,17.1-16.9c3.8-3.8,4.1-7.1,1-11.4c-0.4-0.4-0.9-0.8-1.3-1.2c-5.4-2.3-10.1-0.5-11.5,4.3c-0.1,0.4-0.2,0.8-0.3,1.3
	c-0.3,3.4-0.3,3.4-3.9,3.4c-2.2,0-4.4,0-6.6,0c-0.9,0-1.4-0.1-1.5-1.3c-0.7-9.8,6.3-18.8,15.9-20.5c9.9-1.7,19.7,4.2,22.3,13.6
	c2,7.2,0.5,13.7-4.8,19.2c-4,4.1-8.1,8.1-12.5,12.6h13.9c4.3,0,4.3,0,4.3,4.3c0,1.9-0.1,3.8,0,5.7C84.2,155.9,83.6,156.1,82.1,156.1
	z"/>
<path class="st0" d="M129.5,138.7c0-4.5,0-4.6-4.5-4.5c-1.9,0-2.4-0.5-2.4-2.4c0.1-9.8,0-19.7,0.1-29.5c0-1,0.2-2-1.5-2
	c-5.2,0.1-10.5,0-15.8,0c-0.9,0-1.6,0.1-1.7,1.2c-0.1,0.1-0.1,0.2-0.1,0.4c-0.1,0.2-0.2,0.3-0.3,0.5c-4,9.3-7.7,18.7-12,28
	c-2.2,4.9-3.1,9.7-2.6,14.9c0.1,1.4,1.2,0.8,1.8,0.8c6.7,0.1,13.4,0.1,20.1,0.1l0,0c0,2.6,0.1,5.3,0,7.9c-0.1,1.6,0.3,2.4,2.1,2.2
	c1.4-0.2,2.9,0,4.4,0c1.7,0,4.1,0.6,5.1-0.3c1.2-1,0.3-3.4,0.4-5.2c0.1-4.6,0-4.6,4.7-4.6c0.2,0,0.5,0,0.7,0
	c1.1,0.1,1.6-0.3,1.5-1.5C129.5,142.6,129.5,140.6,129.5,138.7z M109.7,134.1c-2.1,0-4.3,0-6.7,0c2.6-7.1,5.1-14,7.6-20.9
	c0.1,0,0.2,0,0.4,0.1c0,6.6,0,13.2,0,19.7C110.9,133.9,110.5,134.1,109.7,134.1z"/>
<path class="st0" d="M168.4,90.4c-3,8.8-5.8,17.7-8.6,26.5c-5.3,16.4-10.7,32.7-16,49.1c-0.4,1.4-0.9,2-2.5,1.9
	c-3.4-0.1-6.8,0-10.5,0c2.4-7.3,4.8-14.4,7.2-21.4c0.2-1.1,0.4-2.1,1-3c3.7-11.5,7.4-23,11.1-34.5c1.4-4.3,2.8-8.5,4.2-12.8
	c0.4-1.2,0.8-2.4,1.2-3.5c1-4.3,1-4.3,5.3-4.3c2,0,4.1,0.1,6.1,0C168.5,88.3,169,88.6,168.4,90.4z"/>
<path class="st0" d="M205.4,111.1c-4.2,11.4-8.3,22.8-12.5,34.2c-1.1,3.1-2.3,6.1-3.3,9.2c-0.4,1.2-1,1.7-2.3,1.7
	c-3.3-0.1-6.7-0.1-10.1,0c-1,0-1.3-0.2-0.9-1.2c2.2-5.6,4.3-11.1,6.4-16.7c0.5-2,1.2-3.9,2.1-5.7c2.5-6.7,5-13.5,7.5-20.2
	c-0.3-0.4-0.7-0.4-1.2-0.4c-5.5,0-11,0-16.5,0.1H173c-0.2-0.2-0.3-0.3-0.4-0.5V101c-0.1-0.8,0.5-0.7,1-0.7H205
	c0.5,0,1.3-0.2,1.3,0.7C206,104.4,207.2,107.8,205.4,111.1z"/>
<path class="st0" d="M192.2,112.3c-4.9,0-9.9-0.1-14.8-0.2c-0.9,0-1.9-0.1-2.8-0.2c5.5,0,11-0.1,16.5-0.1
	C191.5,111.9,191.9,111.9,192.2,112.3z"/>
<path class="st0" d="M60.9,168c0,0.4-0.1,0.7-0.4,0.8c-0.2-0.2-0.6-0.4-0.3-0.8C60.3,168,60.6,168,60.9,168z"/>
<path class="st0" d="M61.3,88.3c-0.2,0-0.7,0-0.7-0.1c-0.2-0.5,0.3-0.8,0.6-1.2C61.2,87.5,61.3,87.9,61.3,88.3z"/>
<path class="st0" d="M173,112c-0.5,0.2-0.5-0.1-0.4-0.5C172.7,111.7,172.8,111.8,173,112z"/>
<path class="st0" d="M99.1,168.1c0,0.1-0.1,0.2-0.1,0.3l-0.4-0.4C98.7,168,98.9,168.1,99.1,168.1z"/>
<path class="st0" d="M194,88.3c0.1-0.1,0.3-0.3,0.4-0.4C194.6,88.3,194.3,88.3,194,88.3z"/>
<path class="st0" d="M180.8,88.3c-0.3,0.1-0.5-0.1-0.5-0.4C180.5,88,180.7,88.2,180.8,88.3z"/>
<path class="st0" d="M74.4,88.2c-0.1,0-0.3,0.1-0.4,0.1C74.1,88.1,74.2,88,74.4,88.2z"/>
</svg>
