<?xml version="1.0" encoding="UTF-8"?>
<svg id="Capa_1" data-name="Capa 1" xmlns="http://www.w3.org/2000/svg" viewBox="0 0 500 500">
  <path d="M140.88,77.77c14.6-1.65,25.35,5.91,35.45,15.23,16.16,14.91,30.1,32.16,45.44,47.89,10.03,16.72,4.1,37.84-13.59,46.2-5.69,2.69-9.72,3.39-14.88,7.75-25.97,21.91,4.85,62.92,21.59,81,18.33,19.79,60.78,55.59,87.49,32.12,11.57-10.17,9-24.85,25.78-32.4,21.91-9.87,38.71,8.07,53,21.87,8.44,8.15,17.2,17.14,25.04,25.86,20.84,23.17,20.93,38.51-.4,61.42-9.34,10.03-27,28.96-39.29,33.83-31.93,12.67-77.45-8.03-105.27-24.22-41.28-24.04-80.97-59.47-111.99-95.66-31.51-36.75-74.07-99.34-70.89-149.68,1.22-19.3,10.04-28.54,22.61-41.63,9.38-9.76,26.27-28.03,39.92-29.57Z"/>
</svg>