<?xml version="1.0" encoding="utf-8"?>
<!-- Generator: Adobe Illustrator 26.0.0, SVG Export Plug-In . SVG Version: 6.00 Build 0)  -->
<svg version="1.1" id="Layer_1" xmlns="http://www.w3.org/2000/svg" xmlns:xlink="http://www.w3.org/1999/xlink" x="0px" y="0px"
	 viewBox="0 0 250 250" style="enable-background:new 0 0 250 250;" xml:space="preserve">
<style type="text/css">
	.st0{fill:#FFFFFF;}
	.st1{fill:#EA2026;}
</style>
<g>
	<path class="st0" d="M116.7,113.5c0,9.2,0,18.4,0,27.6c0,5.7-3.5,9.1-9.2,9.1c-7.9,0-15.9,0-23.8,0c-5.3,0-8.8-3.5-8.8-8.8
		c0-18.7,0-37.3,0-56c0-1.8-0.4-2.4-2.3-2.3c-4.7,0.1-9.4,0-14.1,0.1c-3.7,0-6.5-1.6-8.1-5c-1.5-3.4-0.8-6.6,1.7-9.3
		c12.3-13.7,24.7-27.5,37-41.2c3.9-4.3,9.3-4.4,13.1-0.1c12.4,13.8,24.8,27.6,37.2,41.3c2.5,2.8,3.1,6,1.6,9.4
		c-1.5,3.3-4.3,4.9-7.9,4.9c-4.7,0-9.4,0.1-14.1,0c-1.7,0-2.3,0.3-2.3,2.2C116.8,94.7,116.7,104.1,116.7,113.5z"/>
	<path class="st0" d="M198,181.2c-7.3,8.1-14.6,16.2-21.9,24.3c-5,5.6-10,11.1-15,16.7c-4.1,4.5-9.4,4.6-13.5,0
		c-12.2-13.6-24.4-27.2-36.6-40.7c-2.6-2.9-3.5-6.1-1.8-9.7c1.6-3.5,4.6-4.9,8.3-4.9c4.6,0,9.1-0.1,13.7,0c1.8,0,2.3-0.3,2.3-2.2
		c-0.1-18.6,0-37.2-0.1-55.8c0-3.3,1.1-5.9,3.9-7.8c0.8-0.5,1.6-1,2.5-1c0.7-0.4,1.5-0.4,2.3-0.4c8.2,0,16.3,0,24.5,0
		c0.7,0,1.5-0.1,2.1,0.3c4,0.8,6.5,3.9,6.5,8.2c0,8.7,0,17.3,0,25.9c0,10.7,0,21.4-0.1,32.1c0.5,0.8,1.3,0.5,2,0.5
		c4.8,0,9.6,0,14.4,0c0.9,0,1.8-0.2,2.7,0.4C200.4,169,202.4,176.3,198,181.2z"/>
</g>
<path class="st1" d="M139.8,140.8c0.1,0,0.1,0.1,0.2,0.1C139.9,140.9,139.9,140.9,139.8,140.8L139.8,140.8z"/>
</svg>
