<?xml version="1.0" encoding="UTF-8"?>
<svg id="Capa_1" data-name="Capa 1" xmlns="http://www.w3.org/2000/svg" xmlns:xlink="http://www.w3.org/1999/xlink" viewBox="0 0 500 500">
  <defs>
    <style>
      .cls-1 {
        filter: url(#drop-shadow-1);
      }
    </style>
    <filter id="drop-shadow-1" x="1.05" y="61.29" width="498.72" height="378.24" filterUnits="userSpaceOnUse">
      <feOffset dx=".39" dy=".39"/>
      <feGaussianBlur result="blur" stdDeviation=".29"/>
      <feFlood flood-color="#000" flood-opacity=".75"/>
      <feComposite in2="blur" operator="in"/>
      <feComposite in="SourceGraphic"/>
    </filter>
  </defs>
  <g class="cls-1">
    <circle cx="250" cy="393.56" r="44.49" transform="translate(-209.81 470.77) rotate(-67.11)"/>
    <path d="M162.62,344.44c5.8,0,11.59-2.21,16.01-6.63,19.06-19.06,44.41-29.56,71.37-29.56,26.96,0,52.31,10.5,71.37,29.56,8.84,8.84,23.18,8.84,32.02,0,8.84-8.84,8.84-23.18,0-32.02-27.62-27.62-64.34-42.83-103.4-42.83-39.06,0-75.78,15.21-103.4,42.83-8.84,8.84-8.84,23.18,0,32.02,4.42,4.42,10.22,6.63,16.01,6.63Z"/>
    <path d="M90.13,271.54c5.79,0,11.59-2.21,16.01-6.63,79.33-79.33,208.4-79.33,287.73,0,8.84,8.84,23.18,8.84,32.02,0,8.84-8.84,8.84-23.18,0-32.02-46.98-46.98-109.44-72.85-175.89-72.85-66.44,0-128.9,25.87-175.89,72.85-8.84,8.84-8.84,23.18,0,32.02,4.42,4.42,10.22,6.63,16.01,6.63Z"/>
    <path d="M24.37,200.69c5.79,0,11.59-2.21,16.01-6.63,115.58-115.58,303.65-115.58,419.23,0,8.84,8.84,23.18,8.84,32.02,0,8.84-8.84,8.84-23.18,0-32.02-64.54-64.54-150.36-100.09-241.64-100.09-91.28,0-177.1,35.55-241.64,100.09-8.84,8.84-8.84,23.18,0,32.02,4.42,4.42,10.22,6.63,16.01,6.63Z"/>
  </g>
</svg>