<?xml version="1.0" encoding="UTF-8"?>
<svg id="PSE" xmlns="http://www.w3.org/2000/svg" viewBox="0 0 300 300">
  <path d="M218.33,67.04c-8.36,0-15.13,6.77-15.13,15.13s6.77,15.13,15.13,15.13,15.13-6.77,15.13-15.13-6.77-15.13-15.13-15.13Z"/>
  <path d="M151.06,86.44c-35.05,0-63.56,28.51-63.56,63.56s28.51,63.56,63.56,63.56,63.56-28.51,63.56-63.56-28.51-63.56-63.56-63.56ZM151.06,190.71c-22.45,0-40.71-18.26-40.71-40.71s18.26-40.71,40.71-40.71,40.71,18.26,40.71,40.71-18.26,40.71-40.71,40.71Z"/>
  <path d="M201.52,279.04h-103.04c-42.75,0-77.52-34.78-77.52-77.52v-103.05c0-42.75,34.78-77.52,77.52-77.52h103.04c42.75,0,77.53,34.77,77.53,77.52v103.05c0,42.75-34.78,77.52-77.53,77.52ZM98.48,45.24c-29.36,0-53.24,23.88-53.24,53.24v103.05c0,29.36,23.88,53.24,53.24,53.24h103.04c29.36,0,53.24-23.88,53.24-53.24v-103.05c0-29.36-23.89-53.24-53.24-53.24h-103.04Z"/>
</svg>