<?xml version="1.0" encoding="UTF-8"?>
<svg id="PSE" xmlns="http://www.w3.org/2000/svg" viewBox="0 0 300 300">
  <defs>
    <style>
      .cls-1 {
        fill: #ff1753;
      }

      .cls-1, .cls-2, .cls-3 {
        fill-rule: evenodd;
      }

      .cls-2 {
        fill: #fff;
      }

      .cls-3 {
        fill: #00c9d0;
      }
    </style>
  </defs>
  <path class="cls-1" d="M205.69,113.72c16.85,12.04,37.49,19.12,59.79,19.12v-42.88c-4.22,0-8.43-.44-12.55-1.31v33.75c-22.29,0-42.93-7.08-59.79-19.12v87.5c0,43.78-35.5,79.26-79.3,79.26-16.34,0-31.53-4.94-44.15-13.41,14.4,14.72,34.48,23.85,56.7,23.85,43.8,0,79.3-35.48,79.3-79.26v-87.5h0ZM221.17,70.46c-8.61-9.4-14.26-21.56-15.49-34.99v-5.51h-11.9c2.99,17.07,13.21,31.66,27.39,40.51h0ZM97.38,223.05c-4.81-6.3-7.41-14.02-7.4-21.95,0-20.02,16.24-36.25,36.28-36.25,3.73,0,7.44.57,11,1.7v-43.84c-4.16-.57-8.36-.81-12.55-.72v34.12c-3.56-1.13-7.27-1.7-11.01-1.7-20.04,0-36.27,16.23-36.27,36.26,0,14.16,8.12,26.42,19.95,32.39Z"/>
  <path class="cls-2" d="M193.13,103.28c16.85,12.04,37.49,19.12,59.79,19.12v-33.75c-12.44-2.65-23.46-9.15-31.74-18.19-14.18-8.84-24.39-23.43-27.39-40.51h-31.25v171.27c-.07,19.97-16.28,36.13-36.28,36.13-11.78,0-22.25-5.61-28.88-14.31-11.84-5.97-19.95-18.23-19.95-32.39,0-20.02,16.24-36.26,36.27-36.26,3.84,0,7.54.6,11.01,1.7v-34.12c-43.02.89-77.63,36.03-77.63,79.24,0,21.57,8.62,41.13,22.6,55.42,12.62,8.47,27.81,13.41,44.15,13.41,43.79,0,79.3-35.48,79.3-79.26v-87.51Z"/>
  <path class="cls-3" d="M252.92,88.65v-9.13c-11.22.02-22.22-3.13-31.74-9.06,8.43,9.22,19.52,15.58,31.74,18.19ZM193.79,29.95c-.29-1.63-.51-3.27-.66-4.92v-5.51h-43.15v171.27c-.07,19.97-16.28,36.13-36.27,36.13-5.87,0-11.41-1.39-16.32-3.87,6.63,8.69,17.1,14.31,28.88,14.31,19.99,0,36.21-16.17,36.28-36.13V29.95h31.25ZM124.71,121.98v-9.72c-3.61-.49-7.24-.74-10.88-.74-43.8,0-79.3,35.48-79.3,79.25,0,27.44,13.95,51.63,35.16,65.85-13.98-14.29-22.6-33.84-22.6-55.42,0-43.21,34.6-78.35,77.63-79.24h0Z"/>
</svg>