<?xml version="1.0" encoding="UTF-8"?>
<svg xmlns="http://www.w3.org/2000/svg" xmlns:xlink="http://www.w3.org/1999/xlink" viewBox="0 0 78.5 51.52">
  <defs>
    <style>
      .cls-1 {
        fill: #fff;
      }

      .cls-2 {
        mask: url(#mask);
      }

      .cls-3, .cls-4 {
        mix-blend-mode: soft-light;
      }

      .cls-5, .cls-4 {
        opacity: .4;
      }

      .cls-6 {
        fill: none;
      }

      .cls-7 {
        isolation: isolate;
      }

      .cls-8 {
        fill: url(#linear-gradient);
      }

      .cls-9 {
        clip-path: url(#clippath);
      }
    </style>
    <clipPath id="clippath">
      <rect class="cls-6" x="-785.09" y="271.12" width="1925.25" height="505.24"/>
    </clipPath>
    <linearGradient id="linear-gradient" x1="184.51" y1="-551.11" x2="184.51" y2="1403.1" gradientUnits="userSpaceOnUse">
      <stop offset="0" stop-color="#000"/>
      <stop offset=".09" stop-color="#020202"/>
      <stop offset=".16" stop-color="#0c0c0c"/>
      <stop offset=".21" stop-color="#1c1c1c"/>
      <stop offset=".27" stop-color="#333"/>
      <stop offset=".32" stop-color="#505050"/>
      <stop offset=".37" stop-color="#747474"/>
      <stop offset=".42" stop-color="#9f9f9f"/>
      <stop offset=".46" stop-color="#cfcfcf"/>
      <stop offset=".5" stop-color="#fff"/>
      <stop offset=".51" stop-color="#f2f2f2"/>
      <stop offset=".57" stop-color="#bababa"/>
      <stop offset=".63" stop-color="#888"/>
      <stop offset=".69" stop-color="#5e5e5e"/>
      <stop offset=".75" stop-color="#3c3c3c"/>
      <stop offset=".81" stop-color="#212121"/>
      <stop offset=".87" stop-color="#0e0e0e"/>
      <stop offset=".93" stop-color="#030303"/>
      <stop offset="1" stop-color="#000"/>
    </linearGradient>
    <mask id="mask" x="-843.32" y="-600.06" width="2055.67" height="2055.67" maskUnits="userSpaceOnUse">
      <rect class="cls-8" x="-794.38" y="-551.11" width="1957.78" height="1957.78"/>
    </mask>
  </defs>
  <g class="cls-7">
    <g id="Capa_1" data-name="Capa 1">
      <path d="M27.39,1.99l-1.2,2.33c-1.8-1.47-4.19-2.01-6.47-1.43l-7.4,1.88.1-.38c.14-.49.48-.89.93-1.11C16.63,1.73,19.98.64,23.3.03c.42-.08.86,0,1.22.23l2.52,1.53c.11.07.23.14.35.2Z"/>
      <path d="M51.33,5.27l-3.39,3.62c-.78.83-1.87,1.3-3.01,1.3h-11.35c-1.13,0-2.23-.47-3.01-1.3l-3.39-3.62,1.43-2.8c.52.15,1.06.22,1.6.22h18.09c.54,0,1.08-.07,1.6-.22l1.43,2.8Z"/>
      <path d="M66.19,4.77l-7.4-1.88c-2.28-.58-4.67-.04-6.46,1.43l-1.2-2.33c.11-.06.23-.13.34-.2l2.52-1.53c.37-.23.8-.31,1.22-.23,3.32.61,6.67,1.7,9.95,3.25.46.22.8.62.93,1.11l.1.38Z"/>
      <path d="M58.19,10.72c0-.98.8-1.77,1.78-1.77s1.77.79,1.77,1.77-.8,1.77-1.77,1.77-1.78-.79-1.78-1.77Z"/>
      <path d="M65.13,14.11c-.98,0-1.77.8-1.77,1.77s.79,1.78,1.77,1.78,1.77-.8,1.77-1.78-.79-1.77-1.77-1.77ZM65.13,14.11c-.98,0-1.77.8-1.77,1.77s.79,1.78,1.77,1.78,1.77-.8,1.77-1.78-.79-1.77-1.77-1.77ZM50.08,24.05c-2.15,0-3.91,1.76-3.91,3.92s1.76,3.91,3.91,3.91,3.92-1.75,3.92-3.91-1.76-3.92-3.92-3.92ZM50.08,30.13c-1.19,0-2.16-.97-2.16-2.16s.97-2.16,2.16-2.16,2.16.97,2.16,2.16-.96,2.16-2.16,2.16ZM59.97,19.27c-.98,0-1.78.8-1.78,1.78s.8,1.77,1.78,1.77,1.77-.8,1.77-1.77-.8-1.78-1.77-1.78ZM65.13,14.11c-.98,0-1.77.8-1.77,1.77s.79,1.78,1.77,1.78,1.77-.8,1.77-1.78-.79-1.77-1.77-1.77ZM65.13,14.11c-.98,0-1.77.8-1.77,1.77s.79,1.78,1.77,1.78,1.77-.8,1.77-1.78-.79-1.77-1.77-1.77ZM59.97,19.27c-.98,0-1.78.8-1.78,1.78s.8,1.77,1.78,1.77,1.77-.8,1.77-1.77-.8-1.78-1.77-1.78ZM50.08,24.05c-2.15,0-3.91,1.76-3.91,3.92s1.76,3.91,3.91,3.91,3.92-1.75,3.92-3.91-1.76-3.92-3.92-3.92ZM50.08,30.13c-1.19,0-2.16-.97-2.16-2.16s.97-2.16,2.16-2.16,2.16.97,2.16,2.16-.96,2.16-2.16,2.16ZM28.81,22.22c-3.17,0-5.75,2.58-5.75,5.75s2.58,5.74,5.75,5.74,5.74-2.57,5.74-5.74-2.58-5.75-5.74-5.75ZM32.7,29.6h-2.13v2.13c0,.28-.22.5-.5.5h-2.25c-.28,0-.5-.22-.5-.5v-2.13h-2.14c-.27,0-.5-.23-.5-.51v-2.25c0-.28.23-.5.5-.5h2.14v-2.13c0-.28.22-.51.5-.51h2.25c.28,0,.5.23.5.51v2.13h2.13c.28,0,.51.22.51.5v2.25c0,.28-.23.51-.51.51ZM50.08,24.05c-2.15,0-3.91,1.76-3.91,3.92s1.76,3.91,3.91,3.91,3.92-1.75,3.92-3.91-1.76-3.92-3.92-3.92ZM50.08,30.13c-1.19,0-2.16-.97-2.16-2.16s.97-2.16,2.16-2.16,2.16.97,2.16,2.16-.96,2.16-2.16,2.16ZM59.97,19.27c-.98,0-1.78.8-1.78,1.78s.8,1.77,1.78,1.77,1.77-.8,1.77-1.77-.8-1.78-1.77-1.78ZM65.13,14.11c-.98,0-1.77.8-1.77,1.77s.79,1.78,1.77,1.78,1.77-.8,1.77-1.78-.79-1.77-1.77-1.77ZM65.13,14.11c-.98,0-1.77.8-1.77,1.77s.79,1.78,1.77,1.78,1.77-.8,1.77-1.78-.79-1.77-1.77-1.77ZM59.97,19.27c-.98,0-1.78.8-1.78,1.78s.8,1.77,1.78,1.77,1.77-.8,1.77-1.77-.8-1.78-1.77-1.78ZM50.08,24.05c-2.15,0-3.91,1.76-3.91,3.92s1.76,3.91,3.91,3.91,3.92-1.75,3.92-3.91-1.76-3.92-3.92-3.92ZM50.08,30.13c-1.19,0-2.16-.97-2.16-2.16s.97-2.16,2.16-2.16,2.16.97,2.16,2.16-.96,2.16-2.16,2.16ZM28.81,22.22c-3.17,0-5.75,2.58-5.75,5.75s2.58,5.74,5.75,5.74,5.74-2.57,5.74-5.74-2.58-5.75-5.74-5.75ZM32.7,29.6h-2.13v2.13c0,.28-.22.5-.5.5h-2.25c-.28,0-.5-.22-.5-.5v-2.13h-2.14c-.27,0-.5-.23-.5-.51v-2.25c0-.28.23-.5.5-.5h2.14v-2.13c0-.28.22-.51.5-.51h2.25c.28,0,.5.23.5.51v2.13h2.13c.28,0,.51.22.51.5v2.25c0,.28-.23.51-.51.51ZM18.82,11.52c-2.01,0-3.65,1.64-3.65,3.65s1.64,3.65,3.65,3.65,3.65-1.64,3.65-3.65-1.63-3.65-3.65-3.65ZM18.82,17.33c-1.19,0-2.16-.97-2.16-2.16s.97-2.16,2.16-2.16,2.16.97,2.16,2.16-.96,2.16-2.16,2.16ZM28.81,22.22c-3.17,0-5.75,2.58-5.75,5.75s2.58,5.74,5.75,5.74,5.74-2.57,5.74-5.74-2.58-5.75-5.74-5.75ZM32.7,29.6h-2.13v2.13c0,.28-.22.5-.5.5h-2.25c-.28,0-.5-.22-.5-.5v-2.13h-2.14c-.27,0-.5-.23-.5-.51v-2.25c0-.28.23-.5.5-.5h2.14v-2.13c0-.28.22-.51.5-.51h2.25c.28,0,.5.23.5.51v2.13h2.13c.28,0,.51.22.51.5v2.25c0,.28-.23.51-.51.51ZM50.08,24.05c-2.15,0-3.91,1.76-3.91,3.92s1.76,3.91,3.91,3.91,3.92-1.75,3.92-3.91-1.76-3.92-3.92-3.92ZM50.08,30.13c-1.19,0-2.16-.97-2.16-2.16s.97-2.16,2.16-2.16,2.16.97,2.16,2.16-.96,2.16-2.16,2.16ZM59.97,19.27c-.98,0-1.78.8-1.78,1.78s.8,1.77,1.78,1.77,1.77-.8,1.77-1.77-.8-1.78-1.77-1.78ZM65.13,14.11c-.98,0-1.77.8-1.77,1.77s.79,1.78,1.77,1.78,1.77-.8,1.77-1.78-.79-1.77-1.77-1.77ZM65.13,14.11c-.98,0-1.77.8-1.77,1.77s.79,1.78,1.77,1.78,1.77-.8,1.77-1.78-.79-1.77-1.77-1.77ZM59.97,19.27c-.98,0-1.78.8-1.78,1.78s.8,1.77,1.78,1.77,1.77-.8,1.77-1.77-.8-1.78-1.77-1.78ZM50.08,24.05c-2.15,0-3.91,1.76-3.91,3.92s1.76,3.91,3.91,3.91,3.92-1.75,3.92-3.91-1.76-3.92-3.92-3.92ZM50.08,30.13c-1.19,0-2.16-.97-2.16-2.16s.97-2.16,2.16-2.16,2.16.97,2.16,2.16-.96,2.16-2.16,2.16ZM28.81,22.22c-3.17,0-5.75,2.58-5.75,5.75s2.58,5.74,5.75,5.74,5.74-2.57,5.74-5.74-2.58-5.75-5.74-5.75ZM32.7,29.6h-2.13v2.13c0,.28-.22.5-.5.5h-2.25c-.28,0-.5-.22-.5-.5v-2.13h-2.14c-.27,0-.5-.23-.5-.51v-2.25c0-.28.23-.5.5-.5h2.14v-2.13c0-.28.22-.51.5-.51h2.25c.28,0,.5.23.5.51v2.13h2.13c.28,0,.51.22.51.5v2.25c0,.28-.23.51-.51.51ZM18.82,11.52c-2.01,0-3.65,1.64-3.65,3.65s1.64,3.65,3.65,3.65,3.65-1.64,3.65-3.65-1.63-3.65-3.65-3.65ZM18.82,17.33c-1.19,0-2.16-.97-2.16-2.16s.97-2.16,2.16-2.16,2.16.97,2.16,2.16-.96,2.16-2.16,2.16ZM18.82,11.52c-2.01,0-3.65,1.64-3.65,3.65s1.64,3.65,3.65,3.65,3.65-1.64,3.65-3.65-1.63-3.65-3.65-3.65ZM18.82,17.33c-1.19,0-2.16-.97-2.16-2.16s.97-2.16,2.16-2.16,2.16.97,2.16,2.16-.96,2.16-2.16,2.16ZM28.81,22.22c-3.17,0-5.75,2.58-5.75,5.75s2.58,5.74,5.75,5.74,5.74-2.57,5.74-5.74-2.58-5.75-5.74-5.75ZM32.7,29.6h-2.13v2.13c0,.28-.22.5-.5.5h-2.25c-.28,0-.5-.22-.5-.5v-2.13h-2.14c-.27,0-.5-.23-.5-.51v-2.25c0-.28.23-.5.5-.5h2.14v-2.13c0-.28.22-.51.5-.51h2.25c.28,0,.5.23.5.51v2.13h2.13c.28,0,.51.22.51.5v2.25c0,.28-.23.51-.51.51ZM50.08,24.05c-2.15,0-3.91,1.76-3.91,3.92s1.76,3.91,3.91,3.91,3.92-1.75,3.92-3.91-1.76-3.92-3.92-3.92ZM50.08,30.13c-1.19,0-2.16-.97-2.16-2.16s.97-2.16,2.16-2.16,2.16.97,2.16,2.16-.96,2.16-2.16,2.16ZM59.97,19.27c-.98,0-1.78.8-1.78,1.78s.8,1.77,1.78,1.77,1.77-.8,1.77-1.77-.8-1.78-1.77-1.78ZM65.13,14.11c-.98,0-1.77.8-1.77,1.77s.79,1.78,1.77,1.78,1.77-.8,1.77-1.78-.79-1.77-1.77-1.77ZM65.13,14.11c-.98,0-1.77.8-1.77,1.77s.79,1.78,1.77,1.78,1.77-.8,1.77-1.78-.79-1.77-1.77-1.77ZM59.97,19.27c-.98,0-1.78.8-1.78,1.78s.8,1.77,1.78,1.77,1.77-.8,1.77-1.77-.8-1.78-1.77-1.78ZM50.08,24.05c-2.15,0-3.91,1.76-3.91,3.92s1.76,3.91,3.91,3.91,3.92-1.75,3.92-3.91-1.76-3.92-3.92-3.92ZM50.08,30.13c-1.19,0-2.16-.97-2.16-2.16s.97-2.16,2.16-2.16,2.16.97,2.16,2.16-.96,2.16-2.16,2.16ZM28.81,22.22c-3.17,0-5.75,2.58-5.75,5.75s2.58,5.74,5.75,5.74,5.74-2.57,5.74-5.74-2.58-5.75-5.74-5.75ZM32.7,29.6h-2.13v2.13c0,.28-.22.5-.5.5h-2.25c-.28,0-.5-.22-.5-.5v-2.13h-2.14c-.27,0-.5-.23-.5-.51v-2.25c0-.28.23-.5.5-.5h2.14v-2.13c0-.28.22-.51.5-.51h2.25c.28,0,.5.23.5.51v2.13h2.13c.28,0,.51.22.51.5v2.25c0,.28-.23.51-.51.51ZM18.82,11.52c-2.01,0-3.65,1.64-3.65,3.65s1.64,3.65,3.65,3.65,3.65-1.64,3.65-3.65-1.63-3.65-3.65-3.65ZM18.82,17.33c-1.19,0-2.16-.97-2.16-2.16s.97-2.16,2.16-2.16,2.16.97,2.16,2.16-.96,2.16-2.16,2.16ZM18.82,11.52c-2.01,0-3.65,1.64-3.65,3.65s1.64,3.65,3.65,3.65,3.65-1.64,3.65-3.65-1.63-3.65-3.65-3.65ZM18.82,17.33c-1.19,0-2.16-.97-2.16-2.16s.97-2.16,2.16-2.16,2.16.97,2.16,2.16-.96,2.16-2.16,2.16ZM28.81,22.22c-3.17,0-5.75,2.58-5.75,5.75s2.58,5.74,5.75,5.74,5.74-2.57,5.74-5.74-2.58-5.75-5.74-5.75ZM32.7,29.6h-2.13v2.13c0,.28-.22.5-.5.5h-2.25c-.28,0-.5-.22-.5-.5v-2.13h-2.14c-.27,0-.5-.23-.5-.51v-2.25c0-.28.23-.5.5-.5h2.14v-2.13c0-.28.22-.51.5-.51h2.25c.28,0,.5.23.5.51v2.13h2.13c.28,0,.51.22.51.5v2.25c0,.28-.23.51-.51.51ZM50.08,24.05c-2.15,0-3.91,1.76-3.91,3.92s1.76,3.91,3.91,3.91,3.92-1.75,3.92-3.91-1.76-3.92-3.92-3.92ZM50.08,30.13c-1.19,0-2.16-.97-2.16-2.16s.97-2.16,2.16-2.16,2.16.97,2.16,2.16-.96,2.16-2.16,2.16ZM54.8,14.11c-.97,0-1.77.8-1.77,1.77s.8,1.78,1.77,1.78,1.78-.8,1.78-1.78-.8-1.77-1.78-1.77ZM59.97,19.27c-.98,0-1.78.8-1.78,1.78s.8,1.77,1.78,1.77,1.77-.8,1.77-1.77-.8-1.78-1.77-1.78ZM65.13,14.11c-.98,0-1.77.8-1.77,1.77s.79,1.78,1.77,1.78,1.77-.8,1.77-1.78-.79-1.77-1.77-1.77ZM65.13,14.11c-.98,0-1.77.8-1.77,1.77s.79,1.78,1.77,1.78,1.77-.8,1.77-1.78-.79-1.77-1.77-1.77ZM59.97,19.27c-.98,0-1.78.8-1.78,1.78s.8,1.77,1.78,1.77,1.77-.8,1.77-1.77-.8-1.78-1.77-1.78ZM50.08,24.05c-2.15,0-3.91,1.76-3.91,3.92s1.76,3.91,3.91,3.91,3.92-1.75,3.92-3.91-1.76-3.92-3.92-3.92ZM50.08,30.13c-1.19,0-2.16-.97-2.16-2.16s.97-2.16,2.16-2.16,2.16.97,2.16,2.16-.96,2.16-2.16,2.16ZM28.81,22.22c-3.17,0-5.75,2.58-5.75,5.75s2.58,5.74,5.75,5.74,5.74-2.57,5.74-5.74-2.58-5.75-5.74-5.75ZM32.7,29.6h-2.13v2.13c0,.28-.22.5-.5.5h-2.25c-.28,0-.5-.22-.5-.5v-2.13h-2.14c-.27,0-.5-.23-.5-.51v-2.25c0-.28.23-.5.5-.5h2.14v-2.13c0-.28.22-.51.5-.51h2.25c.28,0,.5.23.5.51v2.13h2.13c.28,0,.51.22.51.5v2.25c0,.28-.23.51-.51.51ZM18.82,11.52c-2.01,0-3.65,1.64-3.65,3.65s1.64,3.65,3.65,3.65,3.65-1.64,3.65-3.65-1.63-3.65-3.65-3.65ZM18.82,17.33c-1.19,0-2.16-.97-2.16-2.16s.97-2.16,2.16-2.16,2.16.97,2.16,2.16-.96,2.16-2.16,2.16ZM54.8,14.11c-.97,0-1.77.8-1.77,1.77s.8,1.78,1.77,1.78,1.78-.8,1.78-1.78-.8-1.77-1.78-1.77ZM69.01,7.99l-1.94-1.11c-.06-.03-.12-.08-.17-.12l-8.54-2.17c-1.98-.5-4.08.11-5.48,1.6l-3.66,3.9c-1.11,1.18-2.67,1.86-4.29,1.86h-11.35c-1.62,0-3.18-.68-4.29-1.86l-3.65-3.9c-1.4-1.49-3.5-2.1-5.49-1.6l-8.54,2.17s-.11.09-.17.12l-1.94,1.11C3.43,22.7-5.56,44.67,4.6,50.95c1.36.84,3.07.75,4.35-.22,2.91-2.21,6.39-5.93,9.71-9.63,2.15-2.58,4.69-3.68,7.76-3.34h25.68c3.07-.34,5.61.76,7.75,3.34,3.33,3.7,6.81,7.43,9.72,9.63,1.28.97,2.98,1.06,4.34.22,10.16-6.28,1.18-28.25-4.9-42.96ZM59.97,7.47c1.79,0,3.25,1.46,3.25,3.25s-1.46,3.25-3.25,3.25-3.25-1.46-3.25-3.25,1.45-3.25,3.25-3.25ZM54.8,12.63c1.8,0,3.26,1.46,3.26,3.25s-1.46,3.26-3.26,3.26-3.25-1.46-3.25-3.26,1.46-3.25,3.25-3.25ZM18.82,20.6c-2.99,0-5.42-2.44-5.42-5.43s2.43-5.43,5.42-5.43,5.43,2.44,5.43,5.43-2.44,5.43-5.43,5.43ZM28.81,34.96c-3.86,0-7-3.13-7-6.99s3.14-7,7-7,6.99,3.14,6.99,7-3.14,6.99-6.99,6.99ZM36.98,17.93c-.21.89-1.1,1.44-1.99,1.23s-1.45-1.1-1.24-1.99c.22-.89,1.11-1.45,2-1.24.89.21,1.44,1.11,1.23,2ZM44.32,18.71c-.65.65-1.7.65-2.35,0-.65-.64-.65-1.69,0-2.34.65-.65,1.7-.65,2.35,0,.64.65.64,1.7,0,2.34ZM50.08,33.13c-2.84,0-5.16-2.31-5.16-5.16s2.32-5.17,5.16-5.17,5.17,2.32,5.17,5.17-2.32,5.16-5.17,5.16ZM59.97,24.3c-1.8,0-3.25-1.46-3.25-3.25s1.45-3.26,3.25-3.26,3.25,1.46,3.25,3.26-1.46,3.25-3.25,3.25ZM65.13,19.14c-1.79,0-3.25-1.46-3.25-3.26s1.46-3.25,3.25-3.25,3.25,1.46,3.25,3.25-1.46,3.26-3.25,3.26ZM65.13,14.11c-.98,0-1.77.8-1.77,1.77s.79,1.78,1.77,1.78,1.77-.8,1.77-1.78-.79-1.77-1.77-1.77ZM59.97,19.27c-.98,0-1.78.8-1.78,1.78s.8,1.77,1.78,1.77,1.77-.8,1.77-1.77-.8-1.78-1.77-1.78ZM54.8,17.66c.98,0,1.78-.8,1.78-1.78s-.8-1.77-1.78-1.77-1.77.8-1.77,1.77.8,1.78,1.77,1.78ZM50.08,24.05c-2.15,0-3.91,1.76-3.91,3.92s1.76,3.91,3.91,3.91,3.92-1.75,3.92-3.91-1.76-3.92-3.92-3.92ZM50.08,30.13c-1.19,0-2.16-.97-2.16-2.16s.97-2.16,2.16-2.16,2.16.97,2.16,2.16-.96,2.16-2.16,2.16ZM28.81,22.22c-3.17,0-5.75,2.58-5.75,5.75s2.58,5.74,5.75,5.74,5.74-2.57,5.74-5.74-2.58-5.75-5.74-5.75ZM33.21,26.84v2.25c0,.28-.23.51-.51.51h-2.13v2.13c0,.28-.22.5-.5.5h-2.25c-.28,0-.5-.22-.5-.5v-2.13h-2.14c-.27,0-.5-.23-.5-.51v-2.25c0-.28.23-.5.5-.5h2.14v-2.13c0-.28.22-.51.5-.51h2.25c.28,0,.5.23.5.51v2.13h2.13c.28,0,.51.22.51.5ZM18.82,11.52c-2.01,0-3.65,1.64-3.65,3.65s1.64,3.65,3.65,3.65,3.65-1.64,3.65-3.65-1.63-3.65-3.65-3.65ZM18.82,17.33c-1.19,0-2.16-.97-2.16-2.16s.97-2.16,2.16-2.16,2.16.97,2.16,2.16-.96,2.16-2.16,2.16ZM18.82,11.52c-2.01,0-3.65,1.64-3.65,3.65s1.64,3.65,3.65,3.65,3.65-1.64,3.65-3.65-1.63-3.65-3.65-3.65ZM18.82,17.33c-1.19,0-2.16-.97-2.16-2.16s.97-2.16,2.16-2.16,2.16.97,2.16,2.16-.96,2.16-2.16,2.16ZM28.81,22.22c-3.17,0-5.75,2.58-5.75,5.75s2.58,5.74,5.75,5.74,5.74-2.57,5.74-5.74-2.58-5.75-5.74-5.75ZM32.7,29.6h-2.13v2.13c0,.28-.22.5-.5.5h-2.25c-.28,0-.5-.22-.5-.5v-2.13h-2.14c-.27,0-.5-.23-.5-.51v-2.25c0-.28.23-.5.5-.5h2.14v-2.13c0-.28.22-.51.5-.51h2.25c.28,0,.5.23.5.51v2.13h2.13c.28,0,.51.22.51.5v2.25c0,.28-.23.51-.51.51ZM50.08,24.05c-2.15,0-3.91,1.76-3.91,3.92s1.76,3.91,3.91,3.91,3.92-1.75,3.92-3.91-1.76-3.92-3.92-3.92ZM50.08,30.13c-1.19,0-2.16-.97-2.16-2.16s.97-2.16,2.16-2.16,2.16.97,2.16,2.16-.96,2.16-2.16,2.16ZM59.97,19.27c-.98,0-1.78.8-1.78,1.78s.8,1.77,1.78,1.77,1.77-.8,1.77-1.77-.8-1.78-1.77-1.78ZM65.13,14.11c-.98,0-1.77.8-1.77,1.77s.79,1.78,1.77,1.78,1.77-.8,1.77-1.78-.79-1.77-1.77-1.77ZM65.13,14.11c-.98,0-1.77.8-1.77,1.77s.79,1.78,1.77,1.78,1.77-.8,1.77-1.78-.79-1.77-1.77-1.77ZM59.97,19.27c-.98,0-1.78.8-1.78,1.78s.8,1.77,1.78,1.77,1.77-.8,1.77-1.77-.8-1.78-1.77-1.78ZM50.08,24.05c-2.15,0-3.91,1.76-3.91,3.92s1.76,3.91,3.91,3.91,3.92-1.75,3.92-3.91-1.76-3.92-3.92-3.92ZM50.08,30.13c-1.19,0-2.16-.97-2.16-2.16s.97-2.16,2.16-2.16,2.16.97,2.16,2.16-.96,2.16-2.16,2.16ZM28.81,22.22c-3.17,0-5.75,2.58-5.75,5.75s2.58,5.74,5.75,5.74,5.74-2.57,5.74-5.74-2.58-5.75-5.74-5.75ZM32.7,29.6h-2.13v2.13c0,.28-.22.5-.5.5h-2.25c-.28,0-.5-.22-.5-.5v-2.13h-2.14c-.27,0-.5-.23-.5-.51v-2.25c0-.28.23-.5.5-.5h2.14v-2.13c0-.28.22-.51.5-.51h2.25c.28,0,.5.23.5.51v2.13h2.13c.28,0,.51.22.51.5v2.25c0,.28-.23.51-.51.51ZM18.82,11.52c-2.01,0-3.65,1.64-3.65,3.65s1.64,3.65,3.65,3.65,3.65-1.64,3.65-3.65-1.63-3.65-3.65-3.65ZM18.82,17.33c-1.19,0-2.16-.97-2.16-2.16s.97-2.16,2.16-2.16,2.16.97,2.16,2.16-.96,2.16-2.16,2.16ZM18.82,11.52c-2.01,0-3.65,1.64-3.65,3.65s1.64,3.65,3.65,3.65,3.65-1.64,3.65-3.65-1.63-3.65-3.65-3.65ZM18.82,17.33c-1.19,0-2.16-.97-2.16-2.16s.97-2.16,2.16-2.16,2.16.97,2.16,2.16-.96,2.16-2.16,2.16ZM28.81,22.22c-3.17,0-5.75,2.58-5.75,5.75s2.58,5.74,5.75,5.74,5.74-2.57,5.74-5.74-2.58-5.75-5.74-5.75ZM32.7,29.6h-2.13v2.13c0,.28-.22.5-.5.5h-2.25c-.28,0-.5-.22-.5-.5v-2.13h-2.14c-.27,0-.5-.23-.5-.51v-2.25c0-.28.23-.5.5-.5h2.14v-2.13c0-.28.22-.51.5-.51h2.25c.28,0,.5.23.5.51v2.13h2.13c.28,0,.51.22.51.5v2.25c0,.28-.23.51-.51.51ZM50.08,24.05c-2.15,0-3.91,1.76-3.91,3.92s1.76,3.91,3.91,3.91,3.92-1.75,3.92-3.91-1.76-3.92-3.92-3.92ZM50.08,30.13c-1.19,0-2.16-.97-2.16-2.16s.97-2.16,2.16-2.16,2.16.97,2.16,2.16-.96,2.16-2.16,2.16ZM59.97,19.27c-.98,0-1.78.8-1.78,1.78s.8,1.77,1.78,1.77,1.77-.8,1.77-1.77-.8-1.78-1.77-1.78ZM65.13,14.11c-.98,0-1.77.8-1.77,1.77s.79,1.78,1.77,1.78,1.77-.8,1.77-1.78-.79-1.77-1.77-1.77ZM65.13,14.11c-.98,0-1.77.8-1.77,1.77s.79,1.78,1.77,1.78,1.77-.8,1.77-1.78-.79-1.77-1.77-1.77ZM59.97,19.27c-.98,0-1.78.8-1.78,1.78s.8,1.77,1.78,1.77,1.77-.8,1.77-1.77-.8-1.78-1.77-1.78ZM50.08,24.05c-2.15,0-3.91,1.76-3.91,3.92s1.76,3.91,3.91,3.91,3.92-1.75,3.92-3.91-1.76-3.92-3.92-3.92ZM50.08,30.13c-1.19,0-2.16-.97-2.16-2.16s.97-2.16,2.16-2.16,2.16.97,2.16,2.16-.96,2.16-2.16,2.16ZM28.81,22.22c-3.17,0-5.75,2.58-5.75,5.75s2.58,5.74,5.75,5.74,5.74-2.57,5.74-5.74-2.58-5.75-5.74-5.75ZM32.7,29.6h-2.13v2.13c0,.28-.22.5-.5.5h-2.25c-.28,0-.5-.22-.5-.5v-2.13h-2.14c-.27,0-.5-.23-.5-.51v-2.25c0-.28.23-.5.5-.5h2.14v-2.13c0-.28.22-.51.5-.51h2.25c.28,0,.5.23.5.51v2.13h2.13c.28,0,.51.22.51.5v2.25c0,.28-.23.51-.51.51ZM18.82,11.52c-2.01,0-3.65,1.64-3.65,3.65s1.64,3.65,3.65,3.65,3.65-1.64,3.65-3.65-1.63-3.65-3.65-3.65ZM18.82,17.33c-1.19,0-2.16-.97-2.16-2.16s.97-2.16,2.16-2.16,2.16.97,2.16,2.16-.96,2.16-2.16,2.16ZM28.81,22.22c-3.17,0-5.75,2.58-5.75,5.75s2.58,5.74,5.75,5.74,5.74-2.57,5.74-5.74-2.58-5.75-5.74-5.75ZM32.7,29.6h-2.13v2.13c0,.28-.22.5-.5.5h-2.25c-.28,0-.5-.22-.5-.5v-2.13h-2.14c-.27,0-.5-.23-.5-.51v-2.25c0-.28.23-.5.5-.5h2.14v-2.13c0-.28.22-.51.5-.51h2.25c.28,0,.5.23.5.51v2.13h2.13c.28,0,.51.22.51.5v2.25c0,.28-.23.51-.51.51ZM50.08,24.05c-2.15,0-3.91,1.76-3.91,3.92s1.76,3.91,3.91,3.91,3.92-1.75,3.92-3.91-1.76-3.92-3.92-3.92ZM50.08,30.13c-1.19,0-2.16-.97-2.16-2.16s.97-2.16,2.16-2.16,2.16.97,2.16,2.16-.96,2.16-2.16,2.16ZM59.97,19.27c-.98,0-1.78.8-1.78,1.78s.8,1.77,1.78,1.77,1.77-.8,1.77-1.77-.8-1.78-1.77-1.78ZM65.13,14.11c-.98,0-1.77.8-1.77,1.77s.79,1.78,1.77,1.78,1.77-.8,1.77-1.78-.79-1.77-1.77-1.77ZM65.13,14.11c-.98,0-1.77.8-1.77,1.77s.79,1.78,1.77,1.78,1.77-.8,1.77-1.78-.79-1.77-1.77-1.77ZM59.97,19.27c-.98,0-1.78.8-1.78,1.78s.8,1.77,1.78,1.77,1.77-.8,1.77-1.77-.8-1.78-1.77-1.78ZM50.08,24.05c-2.15,0-3.91,1.76-3.91,3.92s1.76,3.91,3.91,3.91,3.92-1.75,3.92-3.91-1.76-3.92-3.92-3.92ZM50.08,30.13c-1.19,0-2.16-.97-2.16-2.16s.97-2.16,2.16-2.16,2.16.97,2.16,2.16-.96,2.16-2.16,2.16ZM28.81,22.22c-3.17,0-5.75,2.58-5.75,5.75s2.58,5.74,5.75,5.74,5.74-2.57,5.74-5.74-2.58-5.75-5.74-5.75ZM32.7,29.6h-2.13v2.13c0,.28-.22.5-.5.5h-2.25c-.28,0-.5-.22-.5-.5v-2.13h-2.14c-.27,0-.5-.23-.5-.51v-2.25c0-.28.23-.5.5-.5h2.14v-2.13c0-.28.22-.51.5-.51h2.25c.28,0,.5.23.5.51v2.13h2.13c.28,0,.51.22.51.5v2.25c0,.28-.23.51-.51.51ZM50.08,24.05c-2.15,0-3.91,1.76-3.91,3.92s1.76,3.91,3.91,3.91,3.92-1.75,3.92-3.91-1.76-3.92-3.92-3.92ZM50.08,30.13c-1.19,0-2.16-.97-2.16-2.16s.97-2.16,2.16-2.16,2.16.97,2.16,2.16-.96,2.16-2.16,2.16ZM59.97,19.27c-.98,0-1.78.8-1.78,1.78s.8,1.77,1.78,1.77,1.77-.8,1.77-1.77-.8-1.78-1.77-1.78ZM65.13,14.11c-.98,0-1.77.8-1.77,1.77s.79,1.78,1.77,1.78,1.77-.8,1.77-1.78-.79-1.77-1.77-1.77ZM65.13,14.11c-.98,0-1.77.8-1.77,1.77s.79,1.78,1.77,1.78,1.77-.8,1.77-1.78-.79-1.77-1.77-1.77ZM59.97,19.27c-.98,0-1.78.8-1.78,1.78s.8,1.77,1.78,1.77,1.77-.8,1.77-1.77-.8-1.78-1.77-1.78ZM50.08,24.05c-2.15,0-3.91,1.76-3.91,3.92s1.76,3.91,3.91,3.91,3.92-1.75,3.92-3.91-1.76-3.92-3.92-3.92ZM50.08,30.13c-1.19,0-2.16-.97-2.16-2.16s.97-2.16,2.16-2.16,2.16.97,2.16,2.16-.96,2.16-2.16,2.16ZM59.97,19.27c-.98,0-1.78.8-1.78,1.78s.8,1.77,1.78,1.77,1.77-.8,1.77-1.77-.8-1.78-1.77-1.78ZM65.13,14.11c-.98,0-1.77.8-1.77,1.77s.79,1.78,1.77,1.78,1.77-.8,1.77-1.78-.79-1.77-1.77-1.77ZM65.13,14.11c-.98,0-1.77.8-1.77,1.77s.79,1.78,1.77,1.78,1.77-.8,1.77-1.78-.79-1.77-1.77-1.77ZM59.97,19.27c-.98,0-1.78.8-1.78,1.78s.8,1.77,1.78,1.77,1.77-.8,1.77-1.77-.8-1.78-1.77-1.78Z"/>
      <g class="cls-9">
        <g class="cls-5">
          <g class="cls-2">
            <g>
              <rect class="cls-6" x="-794.38" y="-551.11" width="1957.78" height="1957.78"/>
              <g>
                <g class="cls-4">
                  <polygon class="cls-1" points="-52.1 7.51 132.51 -72.07 -52.1 7.51 -52.1 7.51"/>
                  <polygon class="cls-1" points="209.82 311.84 207.91 312.45 8.92 82.99 205.77 309.89 205.77 309.89 234.07 58.1 254.72 -124.76 256.47 -125.56 258.77 -122.35 209.82 311.84"/>
                  <polygon class="cls-1" points="204.47 318.42 37.83 377.5 37.37 376.89 40.43 374.47 36.07 374.47 35.92 373.67 177.32 323.39 203.63 314.06 203.63 314.06 57.56 145.78 -54.55 16.49 -56.23 9.92 -54.48 9.72 8.92 82.99 207.91 312.45 208.91 313.75 209.6 314.56 211.05 316.01 209.29 316.66 209.29 316.66 204.47 318.42"/>
                  <rect class="cls-1" x="63.11" y="-233.58" height="293.04"/>
                  <path class="cls-1" d="M256.47-125.56l-.68-1.11-.77-.34v-.65l-4.97-7.38,4.97,2.91v-.15l-20.73-13.84-46.11-30.17-1.84,1.45-.69,1.41-.84-.31L-54.02,7.01l1.91.5,184.61-79.57,122.21-52.69,1.75-.8ZM250.97-129.88l1.76,1.11h0L-43.31-1.02h.08l227.75-172.57h.16l66.3,43.71Z"/>
                  <polygon class="cls-1" points="188.18 -176.3 188.18 -176.3 186.34 -174.85 184.82 -173.74 -54.02 7.01 -54.71 6.86 -53.02 5.25 -55.47 5.56 -53.71 1.39 179.92 -175.5 179.92 -175.5 4.94 -237.33 -139.82 -288.72 -139.82 -288.72 -58.53 1.54 -60.21 5.56 -62.05 4.91 -144.26 -288.57 -144.26 -288.57 -144.87 -290.48 -145.18 -291.48 -145.86 -294.04 -146.09 -294.84 -146.32 -295.49 -142.96 -294.34 185.28 -178.25 187.42 -177.45 188.94 -176.95 188.18 -176.3"/>
                  <path class="cls-1" d="M-56.54,8.31l-156.16,366.47,25.39,3.87H37.07l-.23-1.3-.31-1.46-.46-1.42-.16-.8L-54.55,16.49l-1.68-6.58-.31-1.61ZM-59.45,14.89L-22.43,161.18l53.92,213.29h-244.03L-59.45,14.89h0Z"/>
                </g>
                <g class="cls-3">
                  <polygon class="cls-1" points="-59.75 119.28 75.69 -79.29 -59.75 119.12 -59.75 119.28"/>
                  <polygon class="cls-1" points="159.2 311.84 110.26 -122.35 110.26 -122.35 158.97 309.89 158.97 310.05 21.08 195.87 -60.52 128.11 -61.43 129.56 -61.51 130.17 -62.05 130.52 -62.96 131.78 154.99 312.45 158.97 312.8 158.82 311.84 159.2 311.84"/>
                  <polygon class="cls-1" points="-66.1 131.78 -67.09 137.75 -63.81 133.08 -63.73 133.08 -62.96 131.78 -62.05 130.52 -61.43 129.56 -60.52 128.11 110.26 -122.35 110.26 -122.35 112.47 -125.56 113.23 -126.67 112.93 -126.36 104.37 -121.39 75.69 -79.29 -59.75 119.28 -59.75 119.12 -34.29 -39.64 -35.28 -39.79 -39.41 -34.67 -66.1 131.78"/>
                </g>
              </g>
              <rect class="cls-6" x="-794.38" y="-551.11" width="1957.78" height="1957.78"/>
              <rect class="cls-6" x="-794.38" y="-551.11" width="1957.78" height="1957.78"/>
            </g>
          </g>
        </g>
      </g>
    </g>
  </g>
</svg>