<?xml version="1.0" encoding="UTF-8"?>
<svg id="Capa_1" data-name="Capa 1" xmlns="http://www.w3.org/2000/svg" xmlns:xlink="http://www.w3.org/1999/xlink" viewBox="0 0 799 284.68">
  <defs>
    <linearGradient id="Degradado_sin_nombre_6" data-name="Degradado sin nombre 6" x1="627.53" y1="294.46" x2="457.96" y2="161.93" gradientTransform="translate(0 316) scale(1 -1)" gradientUnits="userSpaceOnUse">
      <stop offset="0" stop-color="#f90"/>
      <stop offset=".98" stop-color="#ff6700"/>
    </linearGradient>
    <linearGradient id="Degradado_sin_nombre_6-2" data-name="Degradado sin nombre 6" x1="622.93" y1="300.35" x2="453.36" y2="167.82" xlink:href="#Degradado_sin_nombre_6"/>
    <linearGradient id="Degradado_sin_nombre_6-3" data-name="Degradado sin nombre 6" x1="647.62" y1="268.77" x2="478.05" y2="136.23" xlink:href="#Degradado_sin_nombre_6"/>
    <linearGradient id="Degradado_sin_nombre_6-4" data-name="Degradado sin nombre 6" x1="635.93" y1="283.71" x2="466.37" y2="151.18" xlink:href="#Degradado_sin_nombre_6"/>
    <linearGradient id="Degradado_sin_nombre_6-5" data-name="Degradado sin nombre 6" x1="689.24" y1="214.88" x2="519.32" y2="82.08" xlink:href="#Degradado_sin_nombre_6"/>
    <linearGradient id="Degradado_sin_nombre_6-6" data-name="Degradado sin nombre 6" x1="729.71" y1="159.84" x2="560.14" y2="27.3" xlink:href="#Degradado_sin_nombre_6"/>
  </defs>
  <g>
    <path d="M4.22,225.63v-104.72h31.71v104.72H4.22Z" fill="#fff"/>
    <path d="M123.29,225.63l-38.69-59.5v59.5h-31.71v-104.72h32.81l36.26,56.52v-56.52h31.71v104.72h-30.39,0Z" fill="#fff"/>
    <path d="M246.47,146.03l-24.81-.16v79.76h-31.71v-79.76l-24.96.16v-25.28h81.48v25.28Z" fill="#fff"/>
    <path d="M332.35,146.03l-24.81-.16v79.76h-31.71v-79.76l-24.96.16v-25.28h81.48v25.28h0Z" fill="#fff"/>
    <path d="M343.81,225.63v-104.88h79.45v25.28l-47.73-.16v15.07h46.63v23.55l-46.63-.16v16.17h47.73v25.12h-79.45Z" fill="#fff"/>
    <path d="M437.38,225.63v-104.72h31.71v79.6h39.72v25.12h-71.44,0Z" fill="#fff"/>
  </g>
  <path d="M790.38,195.48c-2.93,6.76-6.96,12.59-12.08,17.51-5.13,4.92-11.17,8.77-18.13,11.54s-14.47,4.16-22.53,4.16-15.73-1.39-22.68-4.16c-6.96-2.77-13.01-6.62-18.13-11.54-5.13-4.92-9.16-10.75-12.08-17.51-2.94-6.75-4.4-14.16-4.4-22.22s1.46-15.49,4.4-22.3c2.93-6.8,6.95-12.66,12.08-17.59,5.12-4.92,11.17-8.77,18.13-11.54s14.52-4.16,22.68-4.16,15.57,1.39,22.53,4.16c6.96,2.77,13,6.62,18.13,11.54,5.13,4.92,9.16,10.78,12.08,17.59s4.4,14.24,4.4,22.3-1.47,15.46-4.4,22.22h0ZM761.03,161.89c-1.05-3.61-2.59-6.81-4.63-9.58-2.04-2.77-4.63-4.97-7.77-6.59-3.14-1.62-6.81-2.44-10.99-2.44s-8.01.81-11.14,2.44-5.76,3.82-7.85,6.59c-2.09,2.77-3.64,5.97-4.63,9.58-.99,3.61-1.49,7.4-1.49,11.39s.49,7.77,1.49,11.39c.99,3.61,2.54,6.78,4.63,9.5s4.71,4.89,7.85,6.51c3.14,1.62,6.85,2.44,11.14,2.44s7.85-.81,10.99-2.44c3.14-1.62,5.73-3.79,7.77-6.51,2.04-2.72,3.58-5.89,4.63-9.5,1.05-3.61,1.57-7.4,1.57-11.39s-.53-7.77-1.57-11.39Z" fill="#fff"/>
  <g>
    <g>
      <path d="M587.02,84.44v-42.01c0-1.12-.91-2.03-2.03-2.03h-20.87c-1.12,0-2.03.91-2.03,2.03v49.93c7.89-3.83,16.27-6.5,24.93-7.91h0Z" fill="url(#Degradado_sin_nombre_6)"/>
      <path d="M531.1,116.54c6.69-7.94,14.48-14.6,23.01-19.83v-36.8c0-1.12-.91-2.03-2.03-2.03h-20.87c-1.12,0-2.03.91-2.03,2.03v59.01c.63-.79,1.25-1.6,1.91-2.38h0Z" fill="url(#Degradado_sin_nombre_6-2)"/>
      <path d="M652.82,99.33V7.46c0-1.12-.91-2.03-2.03-2.03h-20.87c-1.12,0-2.03.91-2.03,2.03v79.64c9.38,2.72,17.72,6.81,24.93,12.24h0Z" fill="url(#Degradado_sin_nombre_6-3)"/>
      <path d="M601.39,83.26c2.96,0,5.95.16,8.87.46,3.32.35,6.53.82,9.65,1.44V24.94c0-1.12-.91-2.03-2.03-2.03h-20.87c-1.12,0-2.03.91-2.03,2.03v58.56c2.13-.16,4.26-.24,6.4-.24h0Z" fill="url(#Degradado_sin_nombre_6-4)"/>
    </g>
    <path d="M660.58,158.05c-1.93-1.55-5.03-1.3-5.03-1.3l-38.07,2.31s-38.66,2.88-40.47,2.99c-1.81.11-3.06.77-2.67,3.46.92,8.02.32,28.96,30.63,26.78,15-.8,24.45-2.13,30.23-3.28,2.02-.46,1.73,5.6-.82,10.81-.38.79-1.05,1.97-1.97,3.1-1.14,1.41-2.59,2.76-3.58,3.52-17,13.94-41.29,14.79-57.82.85-18.79-15.84-20.45-44.78-3.71-64.64,8.37-9.93,19.76-15.71,31.4-17.03,18.72-2.45,32,1.44,46.54,7.24,1.85.78,3.02.12,3.96-1.38,3.21-5.15,7.24-18.35,3.6-22.6-12.13-10.23-28.27-15.89-43.21-17.43-26.47-2.73-54.44,7.85-73.59,30.56-29.96,35.53-26.99,87.31,6.63,115.66s85.16,22.51,115.1-13.03c18.02-21.38,18.36-52.22,2.82-66.56h0Z" fill="url(#Degradado_sin_nombre_6-5)"/>
    <path d="M639.14,257.49c0-3.03-3.21-4.95-5.91-3.55-9.71,5.05-20.27,8.33-31.25,9.57-16.76,1.9-33.05-1.09-47.29-8.46-2.7-1.4-5.93.51-5.93,3.55v8.43c0,1.48.8,2.86,2.12,3.54,12.59,6.59,26.65,10.03,41.26,10.03,3.53,0,7.11-.2,10.69-.6,12.04-1.36,23.6-4.98,34.2-10.54,1.31-.69,2.12-2.06,2.12-3.55v-8.42h0Z" fill="url(#Degradado_sin_nombre_6-6)"/>
  </g>
</svg>