<?xml version="1.0" encoding="UTF-8"?>
<svg id="Capa_1" data-name="Capa 1" xmlns="http://www.w3.org/2000/svg" viewBox="0 0 980.67 425.68">
  <g>
    <path d="M91.72,283.36v-104.72h31.71v104.72h-31.71Z"/>
    <path d="M210.79,283.36l-38.69-59.5v59.5h-31.71v-104.72h32.81l36.27,56.52v-56.52h31.71v104.72h-30.39Z"/>
    <path d="M333.96,203.76l-24.8-.16v79.75h-31.71v-79.75l-24.96.16v-25.28h81.48v25.28Z"/>
    <path d="M419.84,203.76l-24.8-.16v79.75h-31.71v-79.75l-24.96.16v-25.28h81.48v25.28Z"/>
    <path d="M431.3,283.36v-104.87h79.44v25.28l-47.73-.16v15.07h46.63v23.55l-46.63-.16v16.17h47.73v25.12h-79.44Z"/>
    <path d="M524.87,283.36v-104.72h31.71v79.6h39.72v25.12h-71.43Z"/>
  </g>
  <path d="M877.87,253.22c-2.93,6.75-6.96,12.59-12.09,17.51-5.13,4.92-11.17,8.77-18.13,11.54-6.96,2.77-14.47,4.16-22.53,4.16s-15.73-1.39-22.69-4.16c-6.96-2.77-13.01-6.62-18.13-11.54-5.13-4.92-9.16-10.75-12.09-17.51-2.93-6.75-4.4-14.15-4.4-22.21s1.46-15.49,4.4-22.29c2.93-6.8,6.96-12.66,12.09-17.58,5.13-4.92,11.17-8.77,18.13-11.54,6.96-2.77,14.52-4.16,22.69-4.16s15.57,1.39,22.53,4.16c6.96,2.77,13,6.62,18.13,11.54,5.13,4.92,9.16,10.78,12.09,17.58,2.93,6.81,4.4,14.23,4.4,22.29s-1.47,15.46-4.4,22.21ZM848.51,219.62c-1.05-3.61-2.59-6.8-4.63-9.58-2.04-2.77-4.63-4.97-7.77-6.59s-6.81-2.43-10.99-2.43-8.01.81-11.15,2.43-5.76,3.82-7.85,6.59c-2.09,2.77-3.64,5.97-4.63,9.58-1,3.61-1.49,7.41-1.49,11.38s.49,7.77,1.49,11.38c.99,3.61,2.54,6.78,4.63,9.5,2.09,2.72,4.71,4.89,7.85,6.51,3.14,1.62,6.85,2.43,11.15,2.43s7.85-.81,10.99-2.43c3.14-1.62,5.73-3.79,7.77-6.51,2.04-2.72,3.58-5.89,4.63-9.5,1.05-3.61,1.57-7.4,1.57-11.38s-.52-7.77-1.57-11.38Z"/>
  <g>
    <g>
      <path d="M674.5,142.17v-42.01c0-1.12-.91-2.03-2.03-2.03h-20.87c-1.12,0-2.03.91-2.03,2.03v49.92c7.89-3.82,16.27-6.5,24.93-7.91Z"/>
      <path d="M618.59,174.27c6.69-7.93,14.48-14.6,23.01-19.83v-36.8c0-1.12-.91-2.03-2.03-2.03h-20.87c-1.12,0-2.03.91-2.03,2.03v59.01c.63-.8,1.25-1.6,1.91-2.38Z"/>
      <path d="M740.31,157.06v-91.87c0-1.12-.91-2.03-2.03-2.03h-20.87c-1.12,0-2.03.91-2.03,2.03v79.63c9.38,2.72,17.72,6.81,24.93,12.24Z"/>
      <path d="M688.88,140.99c2.96,0,5.95.15,8.87.45,3.32.34,6.53.82,9.65,1.44v-60.21c0-1.12-.91-2.03-2.03-2.03h-20.87c-1.12,0-2.03.91-2.03,2.03v58.56c2.12-.15,4.26-.24,6.4-.24Z"/>
    </g>
    <path d="M748.07,215.78c-1.93-1.55-5.03-1.31-5.03-1.31l-38.07,2.31s-38.67,2.88-40.47,2.99-3.06.77-2.67,3.45c.91,8.03.32,28.96,30.63,26.78,14.99-.8,24.45-2.13,30.23-3.28,2.02-.45,1.73,5.59-.82,10.81-.38.78-1.05,1.97-1.97,3.1-1.14,1.41-2.6,2.76-3.58,3.51-17,13.94-41.29,14.79-57.82.85-18.79-15.84-20.45-44.78-3.7-64.64,8.37-9.93,19.76-15.71,31.4-17.03,18.72-2.45,31.99,1.45,46.55,7.24,1.85.78,3.02.12,3.96-1.39,3.21-5.15,7.24-18.35,3.6-22.6-12.13-10.22-28.28-15.89-43.21-17.43-26.47-2.73-54.44,7.85-73.59,30.56-29.96,35.53-26.99,87.31,6.62,115.65,33.62,28.34,85.15,22.51,115.11-13.02,18.02-21.38,18.36-52.22,2.83-66.56Z"/>
    <path d="M726.63,315.23c0-3.03-3.21-4.95-5.9-3.55-9.71,5.05-20.26,8.33-31.26,9.57-16.76,1.9-33.05-1.08-47.29-8.45-2.7-1.4-5.92.51-5.92,3.55v8.43c0,1.48.8,2.86,2.11,3.54,12.59,6.59,26.65,10.03,41.25,10.03,3.54,0,7.11-.2,10.69-.61,12.04-1.36,23.6-4.97,34.2-10.54,1.31-.69,2.11-2.07,2.11-3.55v-8.42Z"/>
  </g>
</svg>