<?xml version="1.0" encoding="UTF-8"?>
<svg id="Vectors" xmlns="http://www.w3.org/2000/svg" xmlns:xlink="http://www.w3.org/1999/xlink" viewBox="0 0 50 50">
  <defs>
    <style>
      .cls-1 {
        fill: url(#Degradado_sin_nombre_11);
      }

      .cls-2 {
        fill: url(#Degradado_sin_nombre_11-5);
      }

      .cls-3 {
        fill: url(#Degradado_sin_nombre_11-2);
      }

      .cls-4 {
        fill: url(#Degradado_sin_nombre_2);
      }

      .cls-5 {
        fill: url(#Degradado_sin_nombre_11-3);
      }

      .cls-6 {
        fill: url(#Degradado_sin_nombre_11-4);
      }
    </style>
    <linearGradient id="Degradado_sin_nombre_11" data-name="Degradado sin nombre 11" x1="32.87" y1="3.21" x2="2.46" y2="26.98" gradientUnits="userSpaceOnUse">
      <stop offset="0" stop-color="#f90"/>
      <stop offset=".98" stop-color="#ff6700"/>
    </linearGradient>
    <linearGradient id="Degradado_sin_nombre_11-2" data-name="Degradado sin nombre 11" x1="32.05" y1="2.15" x2="1.64" y2="25.92" xlink:href="#Degradado_sin_nombre_11"/>
    <linearGradient id="Degradado_sin_nombre_11-3" data-name="Degradado sin nombre 11" x1="36.48" y1="7.82" x2="6.06" y2="31.59" xlink:href="#Degradado_sin_nombre_11"/>
    <linearGradient id="Degradado_sin_nombre_11-4" data-name="Degradado sin nombre 11" x1="34.38" y1="5.14" x2="3.97" y2="28.91" xlink:href="#Degradado_sin_nombre_11"/>
    <linearGradient id="Degradado_sin_nombre_2" data-name="Degradado sin nombre 2" x1="43.94" y1="17.48" x2="13.47" y2="41.3" gradientUnits="userSpaceOnUse">
      <stop offset="0" stop-color="#f90"/>
      <stop offset=".98" stop-color="#ff6700"/>
    </linearGradient>
    <linearGradient id="Degradado_sin_nombre_11-5" data-name="Degradado sin nombre 11" x1="51.2" y1="27.36" x2="20.79" y2="51.13" xlink:href="#Degradado_sin_nombre_11"/>
  </defs>
  <g>
    <path class="cls-1" d="M25.61,14.49v-7.54c0-.2-.16-.36-.36-.36h-3.74c-.2,0-.36.16-.36.36v8.95c1.41-.69,2.92-1.17,4.47-1.42Z"/>
    <path class="cls-3" d="M15.58,20.25c1.2-1.42,2.6-2.62,4.13-3.56v-6.6c0-.2-.16-.36-.36-.36h-3.74c-.2,0-.36.16-.36.36v10.58c.11-.14.23-.29.34-.43Z"/>
    <path class="cls-5" d="M37.41,17.16V.69c0-.2-.16-.36-.36-.36h-3.74c-.2,0-.36.16-.36.36v14.28c1.68.49,3.18,1.22,4.47,2.19Z"/>
    <path class="cls-6" d="M28.19,14.28c.53,0,1.07.03,1.59.08.59.06,1.17.15,1.73.26V3.82c0-.2-.16-.36-.36-.36h-3.74c-.2,0-.36.16-.36.36v10.5c.38-.03.76-.04,1.15-.04Z"/>
  </g>
  <path class="cls-4" d="M38.8,27.7c-.35-.28-.9-.23-.9-.23l-6.83.41s-6.94.52-7.26.54-.55.14-.48.62c.16,1.44.06,5.19,5.49,4.8,2.69-.14,4.39-.38,5.42-.59.36-.08.31,1-.15,1.94-.07.14-.19.35-.35.56-.2.25-.47.5-.64.63-3.05,2.5-7.41,2.65-10.37.15-3.37-2.84-3.67-8.03-.66-11.59,1.5-1.78,3.54-2.82,5.63-3.05,3.36-.44,5.74.26,8.35,1.3.33.14.54.02.71-.25.58-.92,1.3-3.29.65-4.05-2.18-1.83-5.07-2.85-7.75-3.13-4.75-.49-9.76,1.41-13.2,5.48-5.37,6.37-4.84,15.66,1.19,20.74,6.03,5.08,15.27,4.04,20.65-2.34,3.23-3.83,3.29-9.37.51-11.94Z"/>
  <path class="cls-2" d="M34.96,45.53c0-.54-.58-.89-1.06-.64-1.74.91-3.63,1.49-5.61,1.72-3.01.34-5.93-.19-8.48-1.52-.48-.25-1.06.09-1.06.64v1.51c0,.27.14.51.38.64,2.26,1.18,4.78,1.8,7.4,1.8.63,0,1.27-.04,1.92-.11,2.16-.24,4.23-.89,6.13-1.89.24-.12.38-.37.38-.64v-1.51Z"/>
</svg>