<?xml version="1.0" encoding="UTF-8"?>
<svg id="PSE" xmlns="http://www.w3.org/2000/svg" viewBox="0 0 440.06 189.26">
  <g>
    <path d="M220.94,70.59c0,4.5-3.26,7.23-8.65,7.23h-5.12v6.28h-2.96v-20.73h8.09c5.39,0,8.65,2.72,8.65,7.23h0ZM217.98,70.59c0-2.96-1.98-4.65-5.78-4.65h-5.04v9.3h5.04c3.79,0,5.78-1.69,5.78-4.65Z"/>
    <path d="M237.17,74.62v9.48h-2.7v-2.07c-.95,1.42-2.7,2.25-5.15,2.25-3.55,0-5.81-1.9-5.81-4.62,0-2.52,1.63-4.59,6.31-4.59h4.5v-.56c0-2.4-1.39-3.79-4.21-3.79-1.87,0-3.76.65-4.98,1.69l-1.18-2.13c1.63-1.3,3.97-2.01,6.49-2.01,4.29,0,6.72,2.07,6.72,6.37v-.02ZM234.32,79.3v-2.19h-4.38c-2.81,0-3.61,1.1-3.61,2.43,0,1.57,1.3,2.55,3.46,2.55s3.82-.98,4.53-2.78h0Z"/>
    <path d="M257.54,68.4v13.56c0,5.54-2.81,8.06-8.14,8.06-2.87,0-5.78-.8-7.49-2.34l1.36-2.19c1.45,1.24,3.73,2.04,6.04,2.04,3.7,0,5.39-1.72,5.39-5.27v-1.24c-1.36,1.63-3.41,2.43-5.66,2.43-4.53,0-7.97-3.08-7.97-7.61s3.44-7.58,7.97-7.58c2.34,0,4.47.86,5.8,2.58v-2.43h2.7ZM254.76,75.83c0-3.05-2.25-5.09-5.39-5.09s-5.42,2.04-5.42,5.09,2.25,5.12,5.42,5.12,5.39-2.1,5.39-5.12Z"/>
    <path d="M261.5,76.25c0-4.68,3.46-8,8.17-8s8.15,3.32,8.15,8-3.44,8.03-8.15,8.03-8.17-3.35-8.17-8.03ZM274.95,76.25c0-3.35-2.25-5.51-5.27-5.51s-5.3,2.16-5.3,5.51,2.28,5.54,5.3,5.54,5.27-2.19,5.27-5.54Z"/>
    <path d="M279.77,82.44l1.18-2.25c1.33.95,3.46,1.63,5.51,1.63,2.64,0,3.73-.8,3.73-2.13,0-3.52-9.92-.47-9.92-6.72,0-2.81,2.52-4.71,6.55-4.71,2.04,0,4.35.53,5.72,1.42l-1.21,2.25c-1.42-.92-2.99-1.24-4.53-1.24-2.49,0-3.7.92-3.7,2.16,0,3.7,9.95.68,9.95,6.78,0,2.84-2.61,4.65-6.78,4.65-2.61,0-5.18-.8-6.49-1.84h-.01Z"/>
    <path d="M302.57,82.44l1.18-2.25c1.33.95,3.46,1.63,5.51,1.63,2.64,0,3.73-.8,3.73-2.13,0-3.52-9.92-.47-9.92-6.72,0-2.81,2.52-4.71,6.55-4.71,2.04,0,4.35.53,5.72,1.42l-1.21,2.25c-1.42-.92-2.99-1.24-4.53-1.24-2.49,0-3.7.92-3.7,2.16,0,3.7,9.95.68,9.95,6.78,0,2.84-2.61,4.65-6.78,4.65-2.61,0-5.18-.8-6.49-1.84h-.01Z"/>
    <path d="M333.52,77.2h-12.74c.36,2.75,2.58,4.59,5.69,4.59,1.84,0,3.38-.62,4.53-1.9l1.57,1.84c-1.42,1.66-3.58,2.55-6.19,2.55-5.06,0-8.44-3.35-8.44-8.03s3.35-8,7.88-8,7.76,3.26,7.76,8.09c0,.24-.03.59-.06.86h0ZM320.78,75.15h10.07c-.3-2.64-2.28-4.5-5.04-4.5s-4.74,1.84-5.04,4.5h.01Z"/>
    <path d="M352.53,68.4v13.56c0,5.54-2.81,8.06-8.14,8.06-2.87,0-5.78-.8-7.49-2.34l1.36-2.19c1.45,1.24,3.73,2.04,6.04,2.04,3.7,0,5.39-1.72,5.39-5.27v-1.24c-1.36,1.63-3.41,2.43-5.66,2.43-4.53,0-7.97-3.08-7.97-7.61s3.44-7.58,7.97-7.58c2.34,0,4.47.86,5.8,2.58v-2.43h2.7ZM349.74,75.83c0-3.05-2.25-5.09-5.39-5.09s-5.42,2.04-5.42,5.09,2.25,5.12,5.42,5.12,5.39-2.1,5.39-5.12Z"/>
    <path d="M372.57,68.4v15.7h-2.7v-2.37c-1.16,1.63-3.11,2.55-5.33,2.55-4.06,0-6.75-2.22-6.75-6.84v-9.03h2.84v8.71c0,3.08,1.54,4.62,4.24,4.62,2.96,0,4.86-1.84,4.86-5.21v-8.12h2.84Z"/>
    <path d="M386.43,68.25v2.75c-.24-.03-.44-.03-.65-.03-3.05,0-4.95,1.87-4.95,5.3v7.82h-2.84v-15.7h2.72v2.64c1.01-1.84,2.96-2.78,5.72-2.78Z"/>
    <path d="M388.32,76.25c0-4.68,3.46-8,8.17-8s8.15,3.32,8.15,8-3.44,8.03-8.15,8.03-8.17-3.35-8.17-8.03ZM401.77,76.25c0-3.35-2.25-5.51-5.27-5.51s-5.3,2.16-5.3,5.51,2.28,5.54,5.3,5.54,5.27-2.19,5.27-5.54Z"/>
    <path d="M406.59,82.44l1.18-2.25c1.33.95,3.46,1.63,5.51,1.63,2.64,0,3.73-.8,3.73-2.13,0-3.52-9.92-.47-9.92-6.72,0-2.81,2.52-4.71,6.55-4.71,2.04,0,4.35.53,5.72,1.42l-1.21,2.25c-1.42-.92-2.99-1.24-4.53-1.24-2.49,0-3.7.92-3.7,2.16,0,3.7,9.95.68,9.95,6.78,0,2.84-2.61,4.65-6.78,4.65-2.61,0-5.18-.8-6.49-1.84h-.01Z"/>
    <path d="M217.92,112.73h-12.74c.36,2.75,2.58,4.59,5.69,4.59,1.84,0,3.38-.62,4.53-1.9l1.57,1.84c-1.42,1.66-3.58,2.55-6.19,2.55-5.06,0-8.44-3.35-8.44-8.03s3.35-8,7.88-8,7.76,3.26,7.76,8.09c0,.24-.03.59-.06.86ZM205.19,110.69h10.07c-.3-2.64-2.28-4.5-5.04-4.5s-4.74,1.84-5.04,4.5h0Z"/>
    <path d="M236.81,110.6v9.03h-2.84v-8.71c0-3.08-1.54-4.59-4.24-4.59-3.02,0-4.98,1.81-4.98,5.21v8.09h-2.84v-15.7h2.72v2.37c1.16-1.6,3.17-2.52,5.66-2.52,3.82,0,6.52,2.19,6.52,6.81h0Z"/>
    <path d="M250.05,97.65h2.84v21.98h-2.84v-21.98Z"/>
    <path d="M261.53,97.8h3.61l-4.98,3.85h-2.67l4.03-3.85h.01ZM258.31,103.93h2.84v15.7h-2.84v-15.7Z"/>
    <path d="M281.46,110.6v9.03h-2.84v-8.71c0-3.08-1.54-4.59-4.24-4.59-3.02,0-4.98,1.81-4.98,5.21v8.09h-2.84v-15.7h2.72v2.37c1.16-1.6,3.17-2.52,5.66-2.52,3.82,0,6.52,2.19,6.52,6.81h0Z"/>
    <path d="M300.95,112.73h-12.74c.36,2.75,2.58,4.59,5.69,4.59,1.84,0,3.38-.62,4.53-1.9l1.57,1.84c-1.42,1.66-3.58,2.55-6.19,2.55-5.06,0-8.44-3.35-8.44-8.03s3.35-8,7.88-8,7.76,3.26,7.76,8.09c0,.24-.03.59-.06.86h0ZM288.21,110.69h10.07c-.3-2.64-2.28-4.5-5.04-4.5s-4.74,1.84-5.04,4.5h.01Z"/>
    <path d="M316.94,110.15v9.48h-2.7v-2.07c-.95,1.42-2.7,2.25-5.15,2.25-3.55,0-5.81-1.9-5.81-4.62,0-2.52,1.63-4.59,6.31-4.59h4.5v-.56c0-2.4-1.39-3.79-4.21-3.79-1.87,0-3.76.65-4.98,1.69l-1.18-2.13c1.63-1.3,3.97-2.01,6.49-2.01,4.29,0,6.72,2.07,6.72,6.37v-.02ZM314.09,114.83v-2.19h-4.38c-2.81,0-3.61,1.1-3.61,2.43,0,1.57,1.3,2.55,3.46,2.55s3.82-.98,4.53-2.78h0Z"/>
  </g>
  <g>
    <path d="M429.53,47.16h-253.51C159.77,19.86,129.98,1.57,95.9,1.57S30.22,20.99,14.34,49.68c1.52.57,2.62,2.1,2.62,3.92,0,2.31-1.76,4.18-3.92,4.18-.87,0-1.67-.32-2.32-.83-1.01,2.28-1.93,4.61-2.76,6.98.67.75,1.09,1.76,1.09,2.88,0,2.05-1.39,3.75-3.22,4.1-.42,1.61-.81,3.24-1.15,4.88h11.45l8.58,15h20.86v2h-12.72l-8.25,15h-8.84c-.51,2-1.97,2.82-3.72,2.82-2.17,0-3.92-1.96-3.92-4.27s1.76-4.27,3.92-4.27c1.74,0,3.21,1.72,3.72,2.72h7.87l6.82-12H2.77c0,.64-.02,1.28-.02,1.92,0,6.75.73,13.33,2.09,19.68,1.57.24,2.78,1.67,2.78,3.41,0,1.1-.49,2.07-1.25,2.71.89,3.1,1.96,6.13,3.15,9.09.64-1.38,1.96-2.33,3.5-2.33,2.17,0,3.92,1.87,3.92,4.18s-1.76,4.18-3.92,4.18c-.3,0-.59-.04-.86-.11,15.13,30.99,46.94,52.34,83.75,52.34s65.37-19.23,81.31-47.68h252.31c4.95,0,8.98-4.03,8.98-8.98V56.14c0-4.95-4.03-8.98-8.98-8.98ZM20.92,71.01c-2.17,0-3.92-1.87-3.92-4.18s1.76-4.18,3.92-4.18,3.92,1.87,3.92,4.18-1.76,4.18-3.92,4.18ZM21.47,121.99c-2.17,0-3.92-1.87-3.92-4.18s1.76-4.18,3.92-4.18,3.92,1.87,3.92,4.18-1.76,4.18-3.92,4.18ZM71.48,56l-.55,3.05c.11-.07.23-.14.35-.2l.17-.05c1-.1,3.35-.22,4.11.6.34.22.81.75.77,1.62l-.99,5.76-.99-.17.98-5.69c.02-.48-.3-.67-.33-.69l-.1-.06-.08-.1c-.2-.29-1.7-.42-3.18-.29-.56.3-.93.91-1.04,1.09l-1.1,6.09-.98-.18,1.98-10.97.98.18h0ZM62.06,61.74c.38-2.03,1.99-2.86,2.06-2.89l.11-.05h4.33v1h-4.07c-.29.18-1.19.84-1.45,2.21-.03.09-.85,2.47.02,4.25l.21.05h3.9v1h-4.06l-.71-.17-.11-.19c-1.26-2.2-.26-5.08-.22-5.2h-.01ZM54.4,63.65l.06-.1c.11-.13,1.1-1.31,2.13-1.31l3.74.13.19-1.33c.13-.85-.4-1.16-.61-1.24h-4.12v-1l4.35.02c.57.17,1.59.88,1.37,2.37l-.86,6.01-5.03-.03s-1.02-.39-1.41-1.35c-.26-.64-.2-1.37.19-2.17ZM80.52,104.05c-.08.29-2.09,7.19-8.78,9.2-.11.03-.23.05-.35.06l-14.09.4h-.17c-.22-.02-4.67-.49-8.25-5.01-1.52,8.34-3.03,16.7-3.96,21.8-.12.66-.7,1.13-1.35,1.13-.08,0-.16,0-.24-.02-.74-.13-1.24-.85-1.1-1.59,0,0,2.18-12.08,4.38-24.16,1.1-6.04,2.2-12.08,3.04-16.61.42-2.27.77-4.16,1.02-5.48.21-1.09.34-1.82.5-2.29l-.02-.03c1.55-4.23,6.38-8.81,9.93-9.38.13-.02.25-.1.37-.09.91.03,9.6-.17,15.34-.17h0c1.33,0,8.44,2.82,7.61,8.44,0,.05,0,.18-.02.23l-3.83,23.43c0,.05-.02.1-.03.15h0ZM121.03,74.8h-21.89c-1.07,0-7.82,2.15-7.76,9.26,0,.03,0-.05,0-.02-.02.25-.3,5.87,5,6.84,0,0,15.53.04,15.52.04.08,0,7.76.68,7.35,11.29-.31,8.21-6.72,11.64-10.06,12.21-.08.01-.16.38-.23.38h-24.49c-.77,0-1.39-.73-1.39-1.5s.62-1.5,1.39-1.5h24.36c.93-1,7.36-1.98,7.65-9.53.29-7.49-4.01-8.47-4.7-8.47h-15.72c-6.3-2-7.62-6.8-7.44-9.81-.03-7.83,6.58-11.42,10.09-12.18.1-.02.2,0,.29,0h22.05c.77,0,1.39.73,1.39,1.5s-.62,1.5-1.39,1.5h-.02ZM160.16,92.84c-.12.67-.7,1.15-1.38,1.15l-31.88.24c-.8,4.53-1.47,9.02-1.42,11.36.1,4.37,5.59,5.21,6.31,5.21h22.82c.78,0,1.41.72,1.41,1.5s-.63,1.5-1.41,1.5h-22.91c-.05,0-.1.05-.15.04-3.02-.32-8.77-2.37-8.9-8.02-.14-6,3.88-24.16,4.05-24.93.02-.06.03-.02.05-.08.14-.38,3.51-9.01,10.97-9.01h16.48c.13,0,.26-.19.39-.16.29.08,7.05,1.99,7.05,7.81,0,4.89-1.43,13.04-1.49,13.39h0ZM436.5,131.22c0,3.85-3.13,6.98-6.98,6.98h-251.22c6.86-12.98,10.76-27.77,10.76-43.48,0-16.55-4.32-32.09-11.89-45.56h252.36c3.85,0,6.98,3.13,6.98,6.98v75.08h0Z"/>
    <path d="M14.88,78.8H4.11c-.68,3.92-1.1,7.93-1.27,12h19.06s-7.02-12-7.02-12Z"/>
    <path d="M153.99,74.8h-16.26c-5.2,0-7.97,6.2-8.29,7-.16.72-1.1,4.75-2.03,9.66l30.15-.25c.39-2.46,1.26-7.96,1.26-11.56,0-3.3-3.96-4.85-4.84-4.85h0Z"/>
    <path d="M55.89,66.2h3.89l.4-2.83-3.61-.12c-.36,0-.98.52-1.3.9-.23.5-.28.94-.14,1.29.17.44.59.68.76.76Z"/>
    <path d="M76.47,74.86c-1.01,0-4.22.02-7.43.02h-5.33c-.99,0-1.71,0-2.24-.04-2.32.4-6.46,4.09-7.74,7.53-.24,1.08-2.11,11.24-4.14,22.4,2.79,5.31,7.1,6.11,7.73,6.2l13.8-.39c4.79-1.54,6.54-6.58,6.74-7.2l3.8-23.18c.4-2.58-3.56-5.35-5.19-5.33h0Z"/>
  </g>
</svg>