<?xml version="1.0" encoding="UTF-8"?>
<svg id="PSE" xmlns="http://www.w3.org/2000/svg" xmlns:xlink="http://www.w3.org/1999/xlink" viewBox="0 0 454.42 186.31">
  <defs>
    <radialGradient id="Degradado_sin_nombre" data-name="Degradado sin nombre" cx="94.82" cy="-168.35" fx="44.64" fy="-168.35" r="93.16" gradientTransform="translate(0 -75.53) scale(1 -1)" gradientUnits="userSpaceOnUse">
      <stop offset=".32" stop-color="#2d5ca8"/>
      <stop offset=".53" stop-color="#285496"/>
      <stop offset=".73" stop-color="#1f4272"/>
      <stop offset="1" stop-color="#0d2d4d"/>
    </radialGradient>
  </defs>
  <rect x="99.99" y="47.54" width="354.43" height="91.23" rx="5.47" ry="5.47" fill="#fdb718"/>
  <ellipse id="Circle" cx="93.16" cy="93.15" rx="93.16" ry="93.15" fill="url(#Degradado_sin_nombre)"/>
  <g id="PSE-2" data-name="PSE">
    <path d="M118.28,70.24h-22.05c-.1,0-.2-.01-.29,0-3.51.76-10.12,4.35-10.09,12.18-.18,3.01,1.14,7.81,7.44,9.81h15.72c.7,0,4.99.98,4.7,8.47-.29,7.55-6.72,8.53-7.65,9.53h-24.36c-.77,0-1.39.73-1.39,1.5s.62,1.5,1.39,1.5h24.49c.08,0,.16-.37.24-.38,3.34-.57,9.75-4,10.06-12.21.4-10.61-7.27-11.28-7.35-11.29.01,0-15.52-.04-15.52-.04-5.3-.97-5.01-6.6-5-6.84,0-.03,0,.05,0,.02-.06-7.11,6.7-9.26,7.76-9.26h21.89c.77,0,1.39-.73,1.39-1.5,0-.77-.62-1.5-1.39-1.5Z" fill="#fff"/>
    <path d="M151.86,70.08c-.13-.04-.26.16-.39.16h-16.48c-7.46,0-10.83,8.64-10.97,9.01-.02.06-.04.02-.06.08-.17.77-4.19,18.94-4.05,24.93.13,5.64,5.88,7.69,8.9,8.02.05,0,.1-.04.15-.04h22.91c.78,0,1.41-.72,1.41-1.5s-.63-1.5-1.41-1.5h-22.82c-.72,0-6.21-.84-6.31-5.21-.05-2.34.61-6.83,1.42-11.36l31.88-.24c.68,0,1.26-.48,1.38-1.15.06-.35,1.49-8.5,1.49-13.39,0-5.82-6.76-7.72-7.05-7.81ZM154.83,89.65l-30.15.25c.93-4.91,1.87-8.94,2.03-9.66.32-.81,3.09-7,8.29-7h16.26c.88,0,4.84,1.56,4.84,4.85,0,3.61-.87,9.11-1.26,11.56Z" fill="#fff"/>
    <path d="M81.65,78.68c.83-5.63-6.28-8.44-7.61-8.44h0c-5.74,0-14.43.2-15.34.17-.12-.01-.25.07-.37.09-3.55.57-8.38,5.14-9.93,9.38l.02.03c-.15.47-.29,1.2-.5,2.29-.25,1.32-.6,3.22-1.02,5.49-.84,4.53-1.94,10.57-3.04,16.61-2.2,12.08-4.38,24.16-4.38,24.16-.13.74.36,1.46,1.1,1.59.08.01.16.02.24.02.65,0,1.23-.46,1.35-1.13.92-5.11,2.44-13.47,3.96-21.81,3.58,4.51,8.03,4.99,8.25,5.01.06,0,.11.01.17,0l14.09-.4c.12,0,.24-.02.35-.06,6.68-2,8.69-8.9,8.78-9.2.01-.05.03-.1.03-.15l3.82-23.43s.01-.18.02-.23ZM78.92,78.63l-3.8,23.18c-.2.62-1.94,5.66-6.74,7.2l-13.8.39c-.64-.09-4.94-.88-7.73-6.19,2.03-11.15,3.9-21.32,4.14-22.4,1.28-3.44,5.42-7.13,7.74-7.53.53.03,1.24.03,2.24.04,1.45,0,3.39,0,5.33,0,3.21,0,6.42-.02,7.43-.02,1.63-.01,5.59,2.75,5.19,5.33Z" fill="#fff"/>
  </g>
  <g id="Figures">
    <ellipse cx="18.18" cy="65.25" rx="3.92" ry="4.18" fill="#fdb718"/>
    <path d="M14.22,52.04c0-1.84-1.12-3.38-2.66-3.94-1.31,2.36-2.51,4.79-3.61,7.27.66.53,1.47.86,2.36.86,2.17,0,3.92-1.87,3.92-4.19Z" fill="#fdb718"/>
    <path d="M6.3,65.25c0-1.14-.43-2.16-1.11-2.92-.81,2.3-1.53,4.65-2.15,7.03,1.85-.33,3.27-2.04,3.27-4.11Z" fill="#fdb718"/>
    <ellipse cx="18.73" cy="116.24" rx="3.92" ry="4.18" fill="#fdb718"/>
    <path d="M4.87,116.24c0-1.75-1.22-3.17-2.79-3.41.45,2.07.96,4.11,1.54,6.12.76-.63,1.25-1.61,1.25-2.71Z" fill="#fdb718"/>
    <path d="M14.2,129.89c0-2.31-1.76-4.18-3.92-4.18-1.55,0-2.87.96-3.51,2.35.81,2,1.69,3.97,2.64,5.91.28.07.57.11.88.11,2.17,0,3.92-1.87,3.92-4.18Z" fill="#fdb718"/>
    <path d="M20.86,103.24h-7.87c-.51-1-1.97-2.72-3.72-2.72-2.17,0-3.92,1.96-3.92,4.28s1.76,4.27,3.92,4.27c1.74,0,3.2-.82,3.72-2.82h8.84l8.25-15h12.73v-2h-20.86l-8.57-15H1.89c-.2.99-.39,2-.56,3h10.8l7.02,12H.06c-.03.67-.05,1.33-.06,2h27.68l-6.82,12Z" fill="#fdb718"/>
  </g>
  <g id="ach">
    <path d="M53.05,57.74h4.21s1.23.36,1.01,1.81l-.8,5.58h-4.42s-1.96-.72-.94-2.83c0,0,.92-1.12,1.74-1.12l4.05.14" fill="none" stroke="#fff" stroke-miterlimit="10"/>
    <path d="M65.81,57.74h-4.21s-1.45.72-1.81,2.61c0,0-.98,2.76.18,4.79l.49.11h3.95" fill="none" stroke="#fff" stroke-miterlimit="10"/>
    <polyline points="68.24 54.34 67.63 57.74 66.26 65.31" fill="none" stroke="#fff" stroke-miterlimit="10"/>
    <path d="M67.37,59.15s.5-.99,1.37-1.41c0,0,3.17-.31,3.74.49,0,0,.64.31.6,1.22l-.98,5.69" fill="none" stroke="#fff" stroke-miterlimit="10"/>
  </g>
  <g>
    <path d="M218.3,72.15c0,4.5-3.26,7.23-8.65,7.23h-5.12v6.28h-2.96v-20.73h8.09c5.39,0,8.65,2.72,8.65,7.23h0ZM215.34,72.15c0-2.96-1.98-4.65-5.78-4.65h-5.04v9.3h5.04c3.79,0,5.78-1.69,5.78-4.65Z" fill="#0d2d4d"/>
    <path d="M234.53,76.18v9.48h-2.7v-2.07c-.95,1.42-2.7,2.25-5.15,2.25-3.55,0-5.81-1.9-5.81-4.62,0-2.52,1.63-4.59,6.31-4.59h4.5v-.56c0-2.4-1.39-3.79-4.21-3.79-1.87,0-3.76.65-4.98,1.69l-1.18-2.13c1.63-1.3,3.97-2.01,6.49-2.01,4.29,0,6.72,2.07,6.72,6.37v-.02ZM231.68,80.86v-2.19h-4.38c-2.81,0-3.61,1.1-3.61,2.43,0,1.57,1.3,2.55,3.46,2.55s3.82-.98,4.53-2.78h0Z" fill="#0d2d4d"/>
    <path d="M254.9,69.96v13.56c0,5.54-2.81,8.06-8.14,8.06-2.87,0-5.78-.8-7.49-2.34l1.36-2.19c1.45,1.24,3.73,2.04,6.04,2.04,3.7,0,5.39-1.72,5.39-5.27v-1.24c-1.36,1.63-3.41,2.43-5.66,2.43-4.53,0-7.97-3.08-7.97-7.61s3.44-7.58,7.97-7.58c2.34,0,4.47.86,5.8,2.58v-2.43h2.7ZM252.12,77.39c0-3.05-2.25-5.09-5.39-5.09s-5.42,2.04-5.42,5.09,2.25,5.12,5.42,5.12,5.39-2.1,5.39-5.12Z" fill="#0d2d4d"/>
    <path d="M258.86,77.81c0-4.68,3.46-8,8.17-8s8.15,3.32,8.15,8-3.44,8.03-8.15,8.03-8.17-3.35-8.17-8.03ZM272.31,77.81c0-3.35-2.25-5.51-5.27-5.51s-5.3,2.16-5.3,5.51,2.28,5.54,5.3,5.54,5.27-2.19,5.27-5.54Z" fill="#0d2d4d"/>
    <path d="M277.13,84l1.18-2.25c1.33.95,3.46,1.63,5.51,1.63,2.64,0,3.73-.8,3.73-2.13,0-3.52-9.92-.47-9.92-6.72,0-2.81,2.52-4.71,6.55-4.71,2.04,0,4.35.53,5.72,1.42l-1.21,2.25c-1.42-.92-2.99-1.24-4.53-1.24-2.49,0-3.7.92-3.7,2.16,0,3.7,9.95.68,9.95,6.78,0,2.84-2.61,4.65-6.78,4.65-2.61,0-5.18-.8-6.49-1.84h-.01Z" fill="#0d2d4d"/>
    <path d="M299.93,84l1.18-2.25c1.33.95,3.46,1.63,5.51,1.63,2.64,0,3.73-.8,3.73-2.13,0-3.52-9.92-.47-9.92-6.72,0-2.81,2.52-4.71,6.55-4.71,2.04,0,4.35.53,5.72,1.42l-1.21,2.25c-1.42-.92-2.99-1.24-4.53-1.24-2.49,0-3.7.92-3.7,2.16,0,3.7,9.95.68,9.95,6.78,0,2.84-2.61,4.65-6.78,4.65-2.61,0-5.18-.8-6.49-1.84h-.01Z" fill="#0d2d4d"/>
    <path d="M330.88,78.76h-12.74c.36,2.75,2.58,4.59,5.69,4.59,1.84,0,3.38-.62,4.53-1.9l1.57,1.84c-1.42,1.66-3.58,2.55-6.19,2.55-5.06,0-8.44-3.35-8.44-8.03s3.35-8,7.88-8,7.76,3.26,7.76,8.09c0,.24-.03.59-.06.86h0ZM318.14,76.71h10.07c-.3-2.64-2.28-4.5-5.04-4.5s-4.74,1.84-5.04,4.5h.01Z" fill="#0d2d4d"/>
    <path d="M349.89,69.96v13.56c0,5.54-2.81,8.06-8.14,8.06-2.87,0-5.78-.8-7.49-2.34l1.36-2.19c1.45,1.24,3.73,2.04,6.04,2.04,3.7,0,5.39-1.72,5.39-5.27v-1.24c-1.36,1.63-3.41,2.43-5.66,2.43-4.53,0-7.97-3.08-7.97-7.61s3.44-7.58,7.97-7.58c2.34,0,4.47.86,5.8,2.58v-2.43h2.7ZM347.1,77.39c0-3.05-2.25-5.09-5.39-5.09s-5.42,2.04-5.42,5.09,2.25,5.12,5.42,5.12,5.39-2.1,5.39-5.12Z" fill="#0d2d4d"/>
    <path d="M369.93,69.96v15.7h-2.7v-2.37c-1.16,1.63-3.11,2.55-5.33,2.55-4.06,0-6.75-2.22-6.75-6.84v-9.03h2.84v8.71c0,3.08,1.54,4.62,4.24,4.62,2.96,0,4.86-1.84,4.86-5.21v-8.12h2.84Z" fill="#0d2d4d"/>
    <path d="M383.79,69.81v2.75c-.24-.03-.44-.03-.65-.03-3.05,0-4.95,1.87-4.95,5.3v7.82h-2.84v-15.7h2.72v2.64c1.01-1.84,2.96-2.78,5.72-2.78Z" fill="#0d2d4d"/>
    <path d="M385.68,77.81c0-4.68,3.46-8,8.17-8s8.15,3.32,8.15,8-3.44,8.03-8.15,8.03-8.17-3.35-8.17-8.03ZM399.13,77.81c0-3.35-2.25-5.51-5.27-5.51s-5.3,2.16-5.3,5.51,2.28,5.54,5.3,5.54,5.27-2.19,5.27-5.54Z" fill="#0d2d4d"/>
    <path d="M403.95,84l1.18-2.25c1.33.95,3.46,1.63,5.51,1.63,2.64,0,3.73-.8,3.73-2.13,0-3.52-9.92-.47-9.92-6.72,0-2.81,2.52-4.71,6.55-4.71,2.04,0,4.35.53,5.72,1.42l-1.21,2.25c-1.42-.92-2.99-1.24-4.53-1.24-2.49,0-3.7.92-3.7,2.16,0,3.7,9.95.68,9.95,6.78,0,2.84-2.61,4.65-6.78,4.65-2.61,0-5.18-.8-6.49-1.84h-.01Z" fill="#0d2d4d"/>
    <path d="M215.28,114.29h-12.74c.36,2.75,2.58,4.59,5.69,4.59,1.84,0,3.38-.62,4.53-1.9l1.57,1.84c-1.42,1.66-3.58,2.55-6.19,2.55-5.06,0-8.44-3.35-8.44-8.03s3.35-8,7.88-8,7.76,3.26,7.76,8.09c0,.24-.03.59-.06.86ZM202.55,112.25h10.07c-.3-2.64-2.28-4.5-5.04-4.5s-4.74,1.84-5.04,4.5h0Z" fill="#0d2d4d"/>
    <path d="M234.17,112.16v9.03h-2.84v-8.71c0-3.08-1.54-4.59-4.24-4.59-3.02,0-4.98,1.81-4.98,5.21v8.09h-2.84v-15.7h2.72v2.37c1.16-1.6,3.17-2.52,5.66-2.52,3.82,0,6.52,2.19,6.52,6.81h0Z" fill="#0d2d4d"/>
    <path d="M247.41,99.21h2.84v21.98h-2.84v-21.98Z" fill="#0d2d4d"/>
    <path d="M258.89,99.36h3.61l-4.98,3.85h-2.67l4.03-3.85h.01ZM255.67,105.49h2.84v15.7h-2.84v-15.7Z" fill="#0d2d4d"/>
    <path d="M278.82,112.16v9.03h-2.84v-8.71c0-3.08-1.54-4.59-4.24-4.59-3.02,0-4.98,1.81-4.98,5.21v8.09h-2.84v-15.7h2.72v2.37c1.16-1.6,3.17-2.52,5.66-2.52,3.82,0,6.52,2.19,6.52,6.81h0Z" fill="#0d2d4d"/>
    <path d="M298.31,114.29h-12.74c.36,2.75,2.58,4.59,5.69,4.59,1.84,0,3.38-.62,4.53-1.9l1.57,1.84c-1.42,1.66-3.58,2.55-6.19,2.55-5.06,0-8.44-3.35-8.44-8.03s3.35-8,7.88-8,7.76,3.26,7.76,8.09c0,.24-.03.59-.06.86h0ZM285.57,112.25h10.07c-.3-2.64-2.28-4.5-5.04-4.5s-4.74,1.84-5.04,4.5h.01Z" fill="#0d2d4d"/>
    <path d="M314.3,111.71v9.48h-2.7v-2.07c-.95,1.42-2.7,2.25-5.15,2.25-3.55,0-5.81-1.9-5.81-4.62,0-2.52,1.63-4.59,6.31-4.59h4.5v-.56c0-2.4-1.39-3.79-4.21-3.79-1.87,0-3.76.65-4.98,1.69l-1.18-2.13c1.63-1.3,3.97-2.01,6.49-2.01,4.29,0,6.72,2.07,6.72,6.37v-.02ZM311.45,116.39v-2.19h-4.38c-2.81,0-3.61,1.1-3.61,2.43,0,1.57,1.3,2.55,3.46,2.55s3.82-.98,4.53-2.78h0Z" fill="#0d2d4d"/>
  </g>
</svg>