<?xml version="1.0" encoding="UTF-8"?>
<svg id="Capa_1" data-name="Capa 1" xmlns="http://www.w3.org/2000/svg" viewBox="0 0 873.07 663.05">
  <g>
    <polygon points="337.42 558.5 418.11 558.5 259.79 68.5 179.11 68.5 337.42 558.5" stroke="#fff" stroke-miterlimit="10" stroke-width="6"/>
    <polygon points="178.42 503 259.11 503 100.79 13 20.11 13 178.42 503" stroke="#fff" stroke-miterlimit="10" stroke-width="6"/>
    <polygon points="260.61 502.5 181.61 502.5 336.61 12.5 415.61 12.5 260.61 502.5" fill="#00aefb" stroke="#fff" stroke-miterlimit="10" stroke-width="7.1"/>
    <polygon points="101.61 559.5 22.61 559.5 177.61 69.5 256.61 69.5 101.61 559.5" fill="#00aefb" stroke="#fff" stroke-miterlimit="10" stroke-width="7.1"/>
    <line x1="108.11" y1="287" x2="188.11" y2="287" fill="none" stroke="#fcfcfc" stroke-miterlimit="10" stroke-width="6"/>
    <line x1="249.11" y1="287.5" x2="330.11" y2="287.5" fill="none" stroke="#fcfcfc" stroke-miterlimit="10" stroke-width="6"/>
  </g>
  <text transform="translate(380.41 265.54)" fill="#020202" font-family="ArialRoundedMTBold, &apos;Arial Rounded MT Bold&apos;" font-size="182.62" stroke="#fff" stroke-miterlimit="10" stroke-width="4"><tspan x="0" y="0" letter-spacing="-.01em">e</tspan><tspan x="106.11" y="0">b</tspan></text>
  <text transform="translate(379.98 425.72)" fill="#020202" font-family="ArialRoundedMTBold, &apos;Arial Rounded MT Bold&apos;" font-size="182.62" stroke="#fff" stroke-miterlimit="10" stroke-width="4"><tspan x="0" y="0">aster</tspan></text>
  <polygon points="730 239.24 652.96 256.07 628.93 235.29 730 239.24" fill="#020202" stroke="#fff" stroke-miterlimit="10" stroke-width="2"/>
  <circle cx="634.94" cy="248.09" r="17.92" fill="#3fa9f5" stroke="#fff" stroke-miterlimit="10" stroke-width="3"/>
  <g>
    <circle cx="752.26" cy="627.3" r="10.85" fill="#00aefb" stroke="#fff" stroke-miterlimit="10"/>
    <circle cx="119.87" cy="627.3" r="10.85" fill="#00aefb" stroke="#fff" stroke-miterlimit="10"/>
    <text transform="translate(141.53 649.2)" font-family="FreestyleScript-Regular, &apos;Freestyle Script&apos;" stroke-miterlimit="10"><tspan x="0" y="0" font-size="104" stroke="#020202" stroke-width=".25">Internet Para To</tspan><tspan x="471.06" y="0" xml:space="preserve" font-size="1.46" stroke="#020202" stroke-width=".25">            </tspan><tspan x="475.46" y="0" font-size="104" stroke="#020202" stroke-width=".25">d</tspan><tspan x="502.62" y="0" fill="#00aefb" font-size="77.64" stroke="#00aefb" stroke-width=".25">@</tspan><tspan x="555.58" y="0" xml:space="preserve" font-size="7.32" stroke="#000">   </tspan><tspan x="561.08" y="0" font-size="104" stroke="#000" stroke-width=".25">s</tspan></text>
  </g>
  <path d="M634.25,107.83c12.32,2.54,22.51,5.65,33.48,10.09,1.93.78,3.87,1.63,5.87,2.49,8.9,3.85,17.15,8.73,24.92,14.25,1.4.99,2.59,1.88,3.95,2.92,8.72,6.63,16.69,14.31,23.91,22.98.94,1.12,1.86,2.27,2.77,3.42,6.77,8.59,12.72,18.27,18.1,28.62.65,1.26,1.18,2.33,1.82,3.61,5.39,10.92,10.19,22.88,14.11,35.55.4,1.28.83,2.46,1.21,3.75l27.35-4.75-57-99.33-95-31s-7.74,6.93-5.49,7.39Z" fill="#040006"/>
  <path d="M521.67,111.58c41.72-9.11,79.52-10.55,112.59-3.75l5.92-1.92c1.01-.33,2.1.23,2.43,1.24l.04.13c.28.87-.09,1.8-.85,2.25,5.05,1.26,9.98,2.73,14.79,4.4,3.83,1.22,7.58,2.55,11.23,4.02l6.32-2.05c1.01-.33,2.1.23,2.43,1.24l.04.13c.33,1.01-.23,2.1-1.24,2.43l-1.94.63c8.95,4.01,17.31,8.78,25.1,14.33l8.58-2.78c1.01-.33,2.1.23,2.43,1.24l.04.13c.33,1.01-.23,2.1-1.24,2.43l-5.85,1.9c8.72,6.68,16.68,14.36,23.89,23.07l11.7-3.79c1.01-.33,2.1.23,2.43,1.24l.04.13c.33,1.01-.23,2.1-1.24,2.43l-10.24,3.32c6.75,8.61,12.82,18.16,18.21,28.63l14.78-4.79c1.01-.33,2.1.23,2.43,1.24l.04.13c.33,1.01-.23,2.1-1.24,2.43l-14.19,4.6c4.34,8.85,8.21,18.35,11.63,28.47.85,2.33,1.67,4.68,2.47,7.08.11-.06.23-.11.36-.14l17.82-4.09c1.04-.24,2.07.41,2.31,1.45l.03.13c.24,1.04-.41,2.07-1.45,2.31l-17.82,4.09s-.02,0-.04,0c3.25,10.21,6.09,21.02,8.5,32.48l68.62-1.1c-46.08-175.62-174.41-194.6-319.85-155.33Z" fill="#3fa9f5"/>
  <text transform="translate(778.54 265.04) rotate(-1.56)" fill="#040006" font-family="TwCenMT-CondensedExtraBold, &apos;Tw Cen MT Condensed Extra Bold&apos;" font-size="34.17" font-weight="700"><tspan x="0" y="0">m</tspan></text>
  <text transform="translate(802.4 264.39) rotate(-1.56)" fill="#040006" font-family="TwCenMT-CondensedExtraBold, &apos;Tw Cen MT Condensed Extra Bold&apos;" font-size="34.17" font-weight="700"><tspan x="0" y="0">b</tspan></text>
  <text transform="translate(818.6 263.95) rotate(-1.56)" fill="#040006" font-family="TwCenMT-CondensedExtraBold, &apos;Tw Cen MT Condensed Extra Bold&apos;" font-size="34.17" font-weight="700"><tspan x="0" y="0">s</tspan></text>
  <path d="M520.67,111.89c130.08-28.4,222.07,17.58,251.23,156.42l68.62-1.1c-46.08-175.62-174.41-194.6-319.85-155.33Z" fill="none" stroke="#fff" stroke-miterlimit="10" stroke-width="3"/>
</svg>